<svg id="Layer_1" data-name="Layer 1" xmlns="http://www.w3.org/2000/svg" viewBox="0 0 454.63 465.47"><defs><style>.cls-1{fill:#231f20;}.cls-2{fill:#a1cc3a;}.cls-3{fill:#316f36;}.cls-4{fill:#3b1640;stroke:#6f113f;}.cls-4,.cls-5,.cls-8{stroke-miterlimit:10;}.cls-4,.cls-5{stroke-width:6px;}.cls-5{fill:#6f113f;stroke:#3b1640;}.cls-6{font-size:10.58px;font-family:PressStart2P-Regular, "Press Start 2P";}.cls-6,.cls-7{fill:#a6ce39;}.cls-8{fill:none;stroke:#a1cc3a;}</style></defs><title>banana</title><path class="cls-1" d="M225.33,426.74c.86-.68,1.72-1.38,2.55-2.11C227,425.31,226.18,426,225.33,426.74Z" transform="translate(-12.99 -16.73)"/><path class="cls-2" d="M296.88,126.23c16-20,27-49,53-55,4.11-18.89,10.91-36.44,18.75-54.29-12.41.43-28.62,1.92-34.59,7.84-4,4-1.2,32.69,3.48,33.14-18-1.73-39.58-1.9-49.93,12.92-3.28,4.7-4.89,10.34-6.84,15.74-8.08,22.35-22.76,41.75-39.08,59-10.07,10.66-21,20.78-34,27.57-18.94,9.91-40.81,12.09-62,15-39,5.43-78.72,14.54-111.23,36.84-5.5,3.77-11,8.25-13.25,14.53-1.94,5.42-1.14,11.4.09,17C25,273.7,33,290.4,46.43,301.6a52.63,52.63,0,0,0,5.68,4.11c2.49-16.65,8.56-32.67,19.77-45.48,13-15,34-25,54-27C196.88,226.23,252.88,180.23,296.88,126.23Z" transform="translate(-12.99 -16.73)"/><path class="cls-2" d="M250.88,348.23c-14-35-15-82,12-112,14-16,30-29,44-47,25-31,30-67,37-103-9-1-17,6-19,12C289.76,209.14,188,279.9,83.55,313.67a40.11,40.11,0,0,0,12-2.94c-18.57,10.6-39,23.77-42.85,44.8-3.76,20.74,10.58,40.41,26.43,54.31A169.14,169.14,0,0,0,97.51,423.9C155.56,420.64,212.44,393.22,250.88,348.23Z" transform="translate(-12.99 -16.73)"/><path class="cls-3" d="M261.88,429.23c-10-9-8-26,3-28,5-1,14,12,17,9,44-34,80-74,106-123,37.71-68.48-7.3-138.92-19.72-208.4a16,16,0,0,0-10.28,7.4,59.46,59.46,0,0,1,2,35c-6,32-4,62-13,92-22.37,84.11-75.17,149-128.3,218.34,2.32-1.5,4.58-3.1,6.75-4.83.85-.72,1.7-1.43,2.55-2.11-.85.68-1.7,1.39-2.55,2.11-11.34,9.64-22.59,23.19-16.81,36.41a21,21,0,0,0,8.23,9.2C232.12,458.33,247.75,444.77,261.88,429.23Z" transform="translate(-12.99 -16.73)"/><path class="cls-4" d="M422.88,211.23c-4-46-20-88-45-129-2.36-3.3-6.05-4.16-9.72-3.4,12.42,69.48,57.43,139.92,19.72,208.4-26,49-62,89-106,123-3,3-12-10-17-9-11,2-13,19-3,28-14.13,15.54-29.76,29.1-45.13,43.12a36.77,36.77,0,0,0,6.46,3.23,67.49,67.49,0,0,0,17.67-11.35c48-37,92-71,131-117,25-30,34-65,46-100C421.88,235.23,423.88,223.23,422.88,211.23Z" transform="translate(-12.99 -16.73)"/><path class="cls-1" d="M460.54,194.38C456.8,173,452,151.47,442,132.19,427,103.29,401,81.12,372.19,66a170.08,170.08,0,0,0,7.74-49.25c-2.83,0-6.82.05-11.3.21-7.84,17.85-14.64,35.4-18.75,54.29-26,6-37,35-53,55-44,54-100,100-171,107-20,2-41,12-54,27C60.67,273,54.6,289.06,52.11,305.71c9.37,5.9,20.63,9,31.44,8C188,279.9,289.76,209.14,324.88,98.23c2-6,10-13,19-12-7,36-12,72-37,103-14,18-30,31-44,47-27,30-26,77-12,112-38.44,45-95.32,72.41-153.37,75.67,16.34,10.76,34.61,18.51,53.91,21.27,23.09,3.3,47.65-1.07,67.16-13.6,53.13-69.33,105.93-134.23,128.3-218.34,9-30,7-60,13-92a59.46,59.46,0,0,0-2-35c4-7,15-11,20-4,25,41,41,83,45,129,1,12-1,24-5,36-12,35-21,70-46,100-39,46-83,80-131,117a67.49,67.49,0,0,1-17.67,11.35,65.09,65.09,0,0,0,10.68,3.06c51.74,10.63,107.53-3,149.85-34.65s70.94-80.35,80.15-132.36C470.75,272.93,467.29,233.1,460.54,194.38Z" transform="translate(-12.99 -16.73)"/><path class="cls-1" d="M382.45,246.21l-13.27,17.86a2.62,2.62,0,0,0,.21,4.13l8.85,10,13.52-25.35a21.05,21.05,0,0,1-10.52-5.57" transform="translate(-12.99 -16.73)"/><path class="cls-1" d="M101.5,399.11c3.17.17,6.78-1.61,9.17-4A20.52,20.52,0,0,0,117,381.24a15.74,15.74,0,0,0-1.56-7C110.41,382.26,105.81,390.6,101.5,399.11Z" transform="translate(-12.99 -16.73)"/><path class="cls-1" d="M210.41,284.47q-9.53,13.89-18.13,28.38l7.94,5.49a94.61,94.61,0,0,1,13.33-26.25l-4.8-5.85" transform="translate(-12.99 -16.73)"/><path class="cls-4" d="M16,23.13V36.5H47.25V23.13Z" transform="translate(-12.99 -16.73)"/><path class="cls-2" d="M108,23.13H47.25V36.5H108Z" transform="translate(-12.99 -16.73)"/><path class="cls-5" d="M108,23.13V36.5h62.6V23.13Z" transform="translate(-12.99 -16.73)"/><path class="cls-1" d="M183.63,23.13H170.55V36.5h13.62C184.2,32,183.67,27.57,183.63,23.13Z" transform="translate(-12.99 -16.73)"/><path class="cls-4" d="M220.7,23.13H183.63c0,4.44.57,8.91.54,13.37H220.7Z" transform="translate(-12.99 -16.73)"/><text class="cls-6" transform="translate(0.37 50.92) scale(1.13 1)">BANANA DATA LOADED</text><rect class="cls-7" x="0.37" y="25.94" width="177.33" height="5.14"/><line class="cls-8" x1="88.51" y1="69.4" x2="140.99" y2="191.54"/></svg>