<svg id="Layer_1" data-name="Layer 1" xmlns="http://www.w3.org/2000/svg" viewBox="0 0 68.58 93.95"><defs><style>.cls-1,.cls-7{fill:#009444;}.cls-1{opacity:0.5;}.cls-2,.cls-5{fill:#006838;}.cls-3,.cls-6{fill:#00b6f1;}.cls-3{opacity:0.2;}.cls-4{fill:#1d558a;}.cls-5{opacity:0.64;}</style></defs><title>icon_folks</title><rect class="cls-1" width="68.56" height="93.95"/><ellipse class="cls-2" cx="61" cy="39" rx="6.34" ry="5.29"/><path class="cls-3" d="M62.85,76.74c-3.21,8.55-7.37,17.09-9.85,25.64l12.1.38C65.09,94.44,62.2,83.82,62.85,76.74Z" transform="translate(-10.45 -10.92)"/><path class="cls-4" d="M21.9,70.89l-1.17,1.17c2.34,0,2.34,3.51,4.68,2.34-1.17-1.17,2.34-2.34,1.17-3.51-1.17,0-3.51-1.17-4.68-1.17Z" transform="translate(-10.45 -10.92)"/><path class="cls-5" d="M77.78,56.07a4.74,4.74,0,0,0-3.53-2.53A4,4,0,0,0,73,48c-2.68-.13-4.29,4-2.24,5.7a25,25,0,0,0-1.57,2.93,49.36,49.36,0,0,1,4.22,11.91C74.76,64.39,76.15,60.23,77.78,56.07Z" transform="translate(-10.45 -10.92)"/><path class="cls-6" d="M63,77.94c.31-.8.65-1.59,1-2.37-.39.7-.74,1.39-1.07,2.09A2.4,2.4,0,0,1,63,77.94Z" transform="translate(-10.45 -10.92)"/><path class="cls-6" d="M62.83,77.94c0,.14,0,.28,0,.42l.16-.42a2.4,2.4,0,0,0,0-.28Z" transform="translate(-10.45 -10.92)"/><path class="cls-7" d="M57,74.4a15.66,15.66,0,0,0-1.17-5.85c3.51,1.17,3.51,4.68,5.85,5.85,0-2.42,1.11-4.28,1.41-6.36l-.17.07-5.34-5c3.32-2.51,2.79-8.52-.91-10.4a2.45,2.45,0,0,0,1.23-3.39,4.24,4.24,0,0,0,2.94-2,1.85,1.85,0,0,0-2.79-.46l-1-4.4c-2.61-1.48-6.44.76-6.42,3.76a3.71,3.71,0,0,0-2.75-.35,2.67,2.67,0,0,0,2.86,2.9,3.39,3.39,0,0,1,.13,4.24,8.67,8.67,0,0,1-3.41,2,13.69,13.69,0,0,0-7.65,10.09c-.08-.41-.17-.83-.26-1.24a17.06,17.06,0,0,1-1.25,2.3c-7.81,12.14-16.89,23-23.46,35l10.37.33C33.43,89.18,38.29,74.4,57,74.4Z" transform="translate(-10.45 -10.92)"/><path class="cls-6" d="M62.79,80.5c0-.71,0-1.43,0-2.14l-.06.17C62.75,79.17,62.76,79.82,62.79,80.5Z" transform="translate(-10.45 -10.92)"/><path class="cls-6" d="M63,77.66c0-.31-.05-.61-.1-.92,0,.41,0,.8,0,1.2Z" transform="translate(-10.45 -10.92)"/><path class="cls-6" d="M63,77.94l-.16.42c0,.71,0,1.43,0,2.14l.06,1.12A17.42,17.42,0,0,0,63,77.94Z" transform="translate(-10.45 -10.92)"/><path class="cls-2" d="M78.75,59.15a7.27,7.27,0,0,0-1-3.08c-1.63,4.16-3,8.32-4.41,12.48a49.36,49.36,0,0,0-4.22-11.91,26.67,26.67,0,0,0-2.42,10L63.09,68c-.3,2.08-1.41,3.94-1.41,6.36-2.34-1.17-2.34-4.68-5.85-5.85A15.66,15.66,0,0,1,57,74.4c-18.71,0-23.57,14.78-31.81,27.1h.25C35.51,89.29,48.36,78.7,64,75.57c-.39.78-.73,1.57-1,2.37a17.42,17.42,0,0,1-.13,3.68c.44,6.57,2.25,14.57,2.25,21.14l7.17.23c.06-5.11,2.82-12.16,2.88-17.26.34.12,1.9.55,3.63,1L79,60.06A2.28,2.28,0,0,1,78.75,59.15Z" transform="translate(-10.45 -10.92)"/><path class="cls-6" d="M62.82,78.36c0-.14,0-.28,0-.42l-.06.14c0,.15,0,.3,0,.45Z" transform="translate(-10.45 -10.92)"/><path class="cls-5" d="M64,75.57C48.36,78.7,35.51,89.29,25.44,101.5l27.56.88c2.48-8.55,6.64-17.09,9.85-25.64,0,.31.07.61.1.92C63.28,77,63.63,76.27,64,75.57Z" transform="translate(-10.45 -10.92)"/><path class="cls-6" d="M62.85,76.74c0,.44-.07.88-.08,1.34l.06-.14C62.83,77.54,62.85,77.15,62.85,76.74Z" transform="translate(-10.45 -10.92)"/><path class="cls-7" d="M22,41.59a14.88,14.88,0,0,1-4.59-1.84c.33,1.78-3,1.66-3.9,3.24a4.72,4.72,0,0,0-.15,2.43c0,1.92-1.06,3.5-2.4,4.95V70.65C16.3,61.37,22.55,51.72,22,41.59Z" transform="translate(-10.45 -10.92)"/><path class="cls-5" d="M23.46,74.12c-.75-.76-1.3-2.06-2.73-2.06l1.17-1.17V69.72a25.21,25.21,0,0,1,3.84,1c5-7.79,8-16.38,6.69-26.77-.35-.35-.28-.9,0-1.47a2.85,2.85,0,0,0-.3-.16,8.54,8.54,0,0,0,1.56-3.6,12.12,12.12,0,0,0,7.42-2.32c-2.5.41-5.3,0-7.1-1.8S32,29.52,33.9,27.88a7.34,7.34,0,0,0-7.76.17c-1.22.83,1.44,6.58-.86,8.46s-9.79,1.15-12.53,1.17l10.63,1.16c-.2,1-.39,1.95-.58,2.92L22,41.59c.56,10.13-5.69,19.78-11,29.06V88.93a4.93,4.93,0,0,1,.42-.49A167.32,167.32,0,0,0,23.46,74.12Z" transform="translate(-10.45 -10.92)"/><path class="cls-2" d="M39.53,63.92q-1.47-7.1-3-14.17c-.59-2.83-1.54-6-4.11-7.23-.32.57-.39,1.12,0,1.47,1.3,10.39-1.74,19-6.69,26.77a3.52,3.52,0,0,0,.84.13c1.17,1.17-2.34,2.34-1.17,3.51a1.48,1.48,0,0,1-1.95-.28A167.32,167.32,0,0,1,11.37,88.44a4.93,4.93,0,0,0-.42.49V101l3.87.13c6.57-12,15.65-22.81,23.46-34.95A17.06,17.06,0,0,0,39.53,63.92Z" transform="translate(-10.45 -10.92)"/></svg>