<?xml version="1.0" encoding="utf-8"?>
<!-- Generator: Adobe Illustrator 23.1.1, SVG Export Plug-In . SVG Version: 6.00 Build 0)  -->
<svg version="1.1" xmlns="http://www.w3.org/2000/svg" xmlns:xlink="http://www.w3.org/1999/xlink" x="0px" y="0px"
	 viewBox="0 0 306 285" style="enable-background:new 0 0 306 285;" xml:space="preserve">
<style type="text/css">
	.st0{display:none;}
	.st1{display:inline;fill:none;stroke:#8DC63F;stroke-miterlimit:10;}
	.st2{fill:none;stroke:#8DC63F;stroke-miterlimit:10;}
</style>
<g id="Layer_1" class="st0">
	<path class="st1" d="M250.7,246.9H83c-8.6,0-15.5-6.9-15.5-15.5V63.7c0-8.6,6.9-15.5,15.5-15.5h167.7c8.6,0,15.5,6.9,15.5,15.5
		v167.7C266.2,239.9,259.2,246.9,250.7,246.9z"/>
	<rect x="86.8" y="48.2" class="st1" width="69.3" height="69.3"/>
	<circle class="st1" cx="165.7" cy="161.3" r="29.8"/>
	<rect x="166.8" y="156.9" class="st1" width="22.6" height="10.5"/>
	<rect x="78.9" y="214" class="st1" width="176.3" height="23.7"/>
	<line class="st1" x1="86.8" y1="220.1" x2="220.1" y2="220.1"/>
	<line class="st1" x1="86.8" y1="225.8" x2="220.1" y2="225.8"/>
	<path class="st1" d="M86.8,237.6"/>
	<line class="st1" x1="86.3" y1="231.8" x2="219.7" y2="231.8"/>
</g>
<g id="Layer_2">
	<polygon class="st2" points="30.6,47.3 91.2,263.1 76.5,258.2 17.3,58.7 	"/>
	<polyline class="st2" points="30.6,47.3 171,10.5 233.3,205.2 91.2,263.1 	"/>
	<line class="st2" x1="251.1" y1="74.2" x2="184.4" y2="147.1"/>
	<path class="st2" d="M82.4,116.2c-9.2-11.8-4.3-30.8,7.9-39.5s29.1-8.6,43-3.1c2.3,0.9,4.5,2,6.1,3.8c1.9,2.3,2.4,5.3,2.8,8.2
		c0.8,5.9,1.2,11.8,1.4,17.8c0.2,6.6-0.1,13.7-3.8,19.2c-3.7,5.5-12,8.5-17.2,4.4c-2.3-1.7-3.6-4.5-4.2-7.3
		c-2.5-11.8,9.1-23.8,21.1-22.9s21.5,13.1,20.8,25.1c-0.6,11-8,20.4-15.9,28s-16.8,14.8-21.8,24.6c-5,9.8-4.9,23.4,3.8,30.2
		c4.9,3.8,11.5,4.7,17.6,4.2c10-0.7,20-4.9,26.3-12.7c6.3-7.8,8.1-19.4,3-28.1"/>
	<circle class="st2" cx="27.6" cy="66.2" r="3.1"/>
	<circle class="st2" cx="37.6" cy="99.2" r="3.1"/>
	<circle class="st2" cx="48.6" cy="135.2" r="3.1"/>
	<circle class="st2" cx="59.6" cy="175.2" r="3.1"/>
	<circle class="st2" cx="71.6" cy="215.2" r="3.1"/>
	<circle class="st2" cx="79.6" cy="245.2" r="3.1"/>
	
		<rect x="172.4" y="144.1" transform="matrix(0.7412 0.6712 -0.6712 0.7412 150.048 -78.0948)" class="st2" width="7.9" height="23"/>
	<line class="st2" x1="251.1" y1="72.2" x2="184.4" y2="145.1"/>
	<g>
		<ellipse class="st2" cx="260.5" cy="241" rx="18.4" ry="4.4"/>
		<path class="st2" d="M271.3,277.1h-21.6c-4.2,0-7.6-3.4-7.6-7.6v-13.7c0-4.2,3.4-7.6,7.6-7.6h21.6c4.2,0,7.6,3.4,7.6,7.6v13.7
			C278.9,273.7,275.5,277.1,271.3,277.1z"/>
		<rect x="252.6" y="256.8" class="st2" width="26.3" height="12.6"/>
		<ellipse class="st2" cx="260.5" cy="235" rx="18.4" ry="4.4"/>
		<g>
			<line class="st2" x1="284.6" y1="142.9" x2="263.7" y2="239.3"/>
			<line class="st2" x1="283.6" y1="141.1" x2="262.6" y2="237.6"/>
		</g>
		<g>
			<line class="st2" x1="241.5" y1="186.7" x2="249.3" y2="236.6"/>
			<line class="st2" x1="240.7" y1="185.9" x2="248.6" y2="235.8"/>
		</g>
	</g>
</g>
</svg>
