<?xml version="1.0" encoding="utf-8"?>
<!-- Generator: Adobe Illustrator 23.1.1, SVG Export Plug-In . SVG Version: 6.00 Build 0)  -->
<svg version="1.1" id="Layer_1" xmlns="http://www.w3.org/2000/svg" xmlns:xlink="http://www.w3.org/1999/xlink" x="0px" y="0px"
	 viewBox="0 0 805.5 564.8" style="enable-background:new 0 0 805.5 564.8;" xml:space="preserve">
<path d="M314-17.4c-1,1.2-2,2.4-3,3.7c-1.6,2.2-3.1,4.4-4.8,6.6c-1.2,1.6-2.5,3.1-3.7,4.7c-2.4,3.2-4.4,6.7-5.3,10.7
	c-0.4,1.7-1.2,2.8-3.1,3.1c-3.1,0.5-5.6,2.1-7.4,4.5c-4.5,6-9.4,11.7-14.3,17.4c-2.5,2.9-3.4,6.4-4.1,10.1
	c-0.7,3.8-1.7,7.4-2.8,11.1c-0.9,3.2-3,5.4-5.8,7c-0.6,0.4-1.2,0.7-1.9,1c-8.4,3.5-15.6,8.8-22.2,14.9c-6.6,6.1-13.2,12.1-19.7,18.3
	c-9.5,9-20.4,15.2-32.9,19c-11.5,3.5-22.9,7-34.6,9.6c-3.3,0.7-6.6,1.4-9.8,2.1c-3.8,0.9-7.1,2.7-9.9,5.6
	c-7.3,7.7-14.6,15.4-22,23.1c-2.2,2.2-4.3,4.5-6.7,6.5c-3.9,3.5-8.6,5.4-13.8,6.1c-7.7,0.9-15.4,1-23.1-0.7
	c-9.2-2.1-17.9-0.1-25.9,4.9c-3,1.9-5.9,3.9-8.8,5.8c-12.3,8-25.8,11.6-40.5,10.9c-0.3,0-0.6,0-1-0.1c-3.3,0-4.6,1.1-4.6,4.4
	c0,9.1,0,18.2,0,27.3c0,3,1,3.9,4,3.7c4.3-0.3,8.3-1.6,12.1-3.6c2.9-1.6,5.7-3.3,8.5-5c3.8-2.3,7.6-4.4,12.1-5
	c1.6-0.2,3.2-0.4,4.8-0.2c3.3,0.5,6.5,0.1,9.7-0.8c5-1.4,9.9-3,14.7-5c4.2-1.7,8.6-3.1,12.9-4.4c11.1-3.1,21.6-7.5,31.6-13
	c17-9.2,34.1-18.2,51-27.6c8.5-4.8,16.5-10.3,24.8-15.5c2.4-1.5,4.8-3,7.1-4.5c5.1-3.4,10.8-5.5,16.8-6.6c1.1-0.2,2.2-0.3,3.3-0.7
	c2.1-0.8,3.9-0.3,5.5,1.3c-0.6,1.6-1.6,2.9-3.1,3.7c-0.3,0.2-0.5,0.4-0.8,0.5c-8.8,4.3-16.2,10.5-23.4,17
	c-5.9,5.4-11.9,10.6-17.8,16c-5.8,5.4-11.3,11.1-16.3,17.2c-4.4,5.3-9.2,10.1-15.2,13.8c-1.9,1.2-3.6,3-4.8,4.9
	c-3.3,5.2-7.7,9.2-13,12.1c-3.1,1.7-6.4,3.3-9.7,4.8c-3.7,1.7-7.2,3.7-10.3,6.4c-4.6,4-10.2,5.8-16.1,7c-2.1,0.4-4.2,0.8-6.3,1.5
	c-1.7,0.6-3.4,1.3-5,2.3c-1.7,1.1-3.4,1.8-5.3,2c-3,0.3-5.4,1.5-7.4,3.9c-1.9,2.2-4.1,4.2-6.2,6.3c-1.8,1.8-3.9,3.2-6.6,3.7
	c-8.3,1.6-16.6,3.2-24.9,4.8c-1.3,0.2-2.5,0.5-3.8,0.5c-2,0-2.9-1.2-1.8-3c0.7-1.3,1.8-2.5,3-3.3c5.1-3.2,10.2-6.3,15.3-9.4
	c5.5-3.3,11.3-5.8,17.7-7.1c5.6-1.1,10.7-3.6,15.6-6.7c3.3-2.1,6.5-4.3,9.7-6.6c5.3-3.7,10.9-7,16.8-9.7c5.8-2.6,10.4-6.5,14.3-11.4
	c0.2-0.2,0.3-0.5,0.7-1.1c-2.6-0.6-5.1-0.7-7.4-0.2c-1.9,0.4-3.8,1.1-5.7,1.8c-1.1,0.4-2.2,1-3.2,1.6c-8.8,5.3-17.9,9.8-27.3,14
	c-3,1.3-5.9,2.9-8.7,4.6c-8.2,5-17.1,8.1-26.6,9.9c-10.3,1.9-20.5,4.1-30.8,6.2c-3.3,0.7-4.4,2.2-4.4,5.6c0,11.6,0,23.2,0,34.8
	c0,1.6,0.4,3.1,0.6,4.6c1.4,0.7,2.4,0.1,3.4-0.4c4.9-2.7,9.9-5.3,14.8-7.9c6.8-3.7,14.1-5.8,21.7-7.3c13-2.6,25.5-6.7,37.5-12.2
	c4.9-2.3,9.9-4.3,15.3-5.6c5.5-1.3,10.1-4.3,14.4-7.9c2.6-2.2,5.2-4.3,7.9-6.3c2.6-1.9,5.5-3.3,8.7-3.7c4.4-0.7,8.5-2.1,12.6-3.7
	c3.6-1.4,7.1-2.8,11-3.3c1-0.1,2.1-0.6,2.8-1.2c8-6.9,16.2-13.5,23-21.7c2.6-3.1,5.4-6.1,8.2-9c7-7.1,15.1-12.8,22.9-18.9
	c11.3-8.8,24.2-14.5,37.6-19.1c6-2,12-4,17.5-7.1c9.4-5.3,16.7-12.6,21.2-22.4c1.8-4,5.1-6.5,8.7-8.6c3.5-2,7-3.8,10-6.5
	c2.5-2.2,5.6-3,8.9-2.9c10.1,0.2,20.1,0.3,30.2,0.7c6.2,0.2,12.4,1,18.5,2.7c5.5,1.6,10.6,4,15.1,7.5c0.9,0.7,1.8,1.4,2.7,2
	c3.4,2.2,7.1,2.8,11,1.5c6.3-2.1,12.4-4.7,18-8.3c4.6-3,9.2-6.1,13.5-9.5c6.4-5,13.4-9,20.7-12.4c2.2-1,4.6-1.4,6.9-2.1
	c3.5-0.9,7-1.6,10.4-2.7c3.3-1.1,6.4-1.2,9.4,1c-0.8,1.9-2.1,3.6-3.6,5.1c-0.5,0.5-1.2,0.8-1.9,0.9c-4.8,1.1-9.1,3.2-13.4,5.7
	c-11.9,6.8-23.8,13.5-35.7,20.1c-8.8,4.9-18.3,7.6-28.4,7.9c-5.1,0.2-10.1-0.4-15-1.5c-4.2-1-8-0.5-11.7,1.9
	c-4.5,2.9-9.5,3.1-14.6,1.9c-6.1-1.5-12.1-3-18.1-4.8c-6.4-1.9-12.1-0.9-17.5,2.9c-6.3,4.5-11.5,9.8-15.3,16.6
	c-1.3,2.3-3.1,4.5-4.9,6.5c-3.5,3.8-8,6-13.2,6.8c-14.8,2.3-28.8,7.2-42.2,13.9c-10.4,5.3-20.7,10.8-30.9,16.5
	c-7.7,4.3-13.9,10.1-18.6,17.7c-3,4.8-6.8,8.9-11.2,12.3c-4.2,3.2-8.3,6.5-12.6,9.6c-4.2,3.1-8.6,6.1-12.9,9.2
	c-4.7,3.4-9.8,5.6-15.8,6.4c-5.3,0.7-10.6,2.7-15.1,5.8c-4.4,3-8.9,6.1-12.9,9.6c-9.1,8-19.7,12.2-31.7,13.2
	c-7.6,0.7-14.2,3.6-20.1,8.7c-5.8,5.1-12.3,9.4-19.9,11.6c-3.7,1-7.3,2.3-10.9,3.7c-3,1.1-5.6,3-7.9,5.3c-1.3,1.2-2.6,2.4-4.1,3.3
	c-3.9,2.4-5.9,5.8-5.8,10.3c0.1,3.2,0.3,6.5,0.5,10.2c0.8-0.8,1.4-1.2,1.8-1.7c1.6-2,3.2-4,4.6-6.1c2.7-3.9,5.6-7.6,9.3-10.6
	c5.5-4.4,11.8-6.1,18.8-5.7c2.9,0.2,5.7,0.5,8.6,0.4c2,0,3.9-0.5,5.9-0.7c1.2-0.1,2.4-0.2,3.5,0.2c3.5,1.1,7.1,1.2,10.6,0.3
	c11-2.6,22-5.3,33-8c2.5-0.6,4.9-1.5,7.3-2.4c7.9-3.2,16.2-4.7,24.5-6.6c1.4-0.3,2.9,0,4.3,0.1c1,0.1,1.4,0.7,1.3,1.7
	c-4.2,2.7-8.5,5.4-12.7,8.1c-1.9,1.3-3.9,2.5-5.7,3.9c-5.4,4.3-11.5,7.1-18.1,9c-7.8,2.3-15.6,4.6-23.2,7.7c-4.6,1.8-9.1,4-13.1,6.9
	c-4.6,3.5-9.5,3.7-14.7,1.2c-1.9-0.9-3.9-1.8-6-2.5c-3.4-1.1-6.9-1.2-10.4-0.5c-3.2,0.6-5.9,1.9-8.3,4.1c-3.8,3.5-7.5,7-11.2,10.5
	c-1.7,1.5-3.3,3.1-5.2,4.3c-4.7,3-6.1,7.1-4.5,12.6c0.5-0.3,0.9-0.5,1.3-0.8c1.2-1.1,2.5-2.3,3.7-3.4c4.9-4.6,10.6-8,17.4-9
	c4.6-0.7,9.1-0.1,13.5,0.9c2.2,0.5,4.4,0.9,6.5,1.5c6.1,1.7,12.2,1.6,18.2,0c6.4-1.7,12.8-3.2,19.4-4.1c6.1-0.8,11.3-3.8,15.7-8.1
	c1.5-1.4,3-2.9,4.7-4.1c4-3.1,8.5-4.9,13.7-5.1c7.7-0.3,13.9-4,19.2-9.2c6.4-6.3,13.1-12.2,20.5-17.3c14.1-9.9,29.4-17.3,45.5-23.3
	c11.9-4.4,24.1-7.3,36.4-10.1c6.4-1.4,12.7-3.1,19.1-4.5c5.5-1.2,11-2,16.5-3.2c5.4-1.1,10.4-3.1,15-6.2c3.8-2.5,8.1-3.8,12.7-3.8
	c3.8,0,7.7,0.3,11.5,0.5c11.9,0.6,23.4-1.5,34.6-5.1c6-1.9,11.9-4.2,17.5-7.2c2.6-1.4,5.3-2.7,8-3.8c11.6-4.5,21.4-11.7,29.9-20.7
	c1.8-1.9,3.6-3.7,5.4-5.4c3.8-3.5,8.1-6.1,13-7.9c11.1-4.1,22.1-8.4,33.1-12.7c1.6-0.6,3.2-0.9,5-0.1c-0.2,1.7-1.1,3-2.4,4.2
	c-5.1,4.7-10.3,9.4-15.1,14.4c-5.6,5.7-12,10-19.5,12.7c-14.1,5-27,12.3-39.9,19.7c-9.2,5.2-18.3,10.7-28,15.2
	c-13.9,6.4-28.4,10.6-43.4,13.3c-9.6,1.7-19.3,2.7-29,3.4c-5.9,0.4-11.4,2.4-16.5,5.4c-13.9,8-27.8,16.1-41.7,24.1
	c-1.6,0.9-3.2,1.8-4.8,2.8c-4.5,2.7-9.3,4.8-14.4,6.3c-10.8,3-21,7.6-31,12.8c-7.5,3.8-14.8,7.9-22.3,11.6
	c-8.4,4.2-17.4,6.9-26.8,7.8c-2.9,0.3-5.7,0.3-8.6,0.3c-7.2-0.1-13.8,1.6-19.7,5.7c-3.7,2.5-7.6,3.4-12,3.6
	c-5.3,0.2-10.5,0.4-15.7,1.7c-1.8,0.5-3.6,0.9-5.2,1.7c-4.9,2.3-10.1,3-15.4,2.9c-4.5,0-9,0.1-13.3,1.2c-5.2,1.3-9.9,3.6-13.9,7.2
	c-2.6,2.4-5.1,4.8-7.8,7.1c-2.1,1.7-4.3,3.3-6.6,4.8c-4.6,3-5.6,5.4-4,11.1c0.6-0.3,1.3-0.6,1.9-1c5.6-3.4,11.1-6.9,16.7-10.3
	c1.2-0.7,2.4-1.3,3.6-1.8c1.5-0.6,3.2-0.5,4.7,0.2c3.1,1.4,6,1,8.9-0.7c3.5-2,7.2-3.4,11.3-3.8c3.5-0.4,6.8,0.2,10.2,1.2
	c0.2,0,0.3,0.1,0.5,0.2c7.4,3.7,15,2.6,22.4,0.2c11.7-3.9,22.9-8.9,33.1-16.1c3.8-2.7,7.8-4.1,12.5-4c2.9,0,5.9-0.5,8.8-1
	c2.9-0.6,5.4-2.1,7.2-4.4c3.6-4.5,8.2-7.3,13.6-8.9c5.7-1.7,11.4-3.2,17.1-4.8c9.9-2.8,19.2-7,27.6-13c4.6-3.3,9.6-5.9,14.9-8.1
	c16.8-7.1,33.7-14.3,50.5-21.5c2.3-1,4.7-2.1,7-3.1c3.2-1.3,6.3-1.4,9.5,0.2c0.6,0.3,1.4,0.5,2,0.4c8.7-0.9,17.4-1.2,25.9-3.3
	c8.8-2.1,16.8-5.7,23.3-12.1c2.6-2.5,5.4-3.1,8.8-1.7c2.9,1.2,5.7,1,8.6-0.4c12.5-6.6,25.1-13.1,37.6-19.6c1-0.5,2-1.1,3-1.5
	c0.3-0.1,0.8,0.1,1,0.3c0.2,0.1,0.1,0.6,0,0.9c0,0.2-0.2,0.4-0.4,0.6c-5,7.7-11.4,13.9-19.7,17.7c-9.1,4.1-17.7,9.3-26.2,14.5
	c-7.1,4.3-14.6,7.9-22.6,10.3c-4.5,1.3-8.9,3.2-13.3,4.8c-6,2.2-12.1,3.5-18.5,3.2c-1-0.1-2.1,0-3.1,0c-1.9,0.2-3.7,0.7-5.2,2.1
	c-3.9,3.7-8.5,4.9-13.7,3.7c-1.1-0.2-2.3-0.3-3.3,0c-11.1,3.3-22.2,6.5-33.2,10.1c-8.3,2.7-15.9,7-22.9,12.3
	c-6.2,4.7-12.6,9.1-19.7,12.3c-3.5,1.6-7.1,2.8-10.7,4.1c-6,2.2-12.1,4.2-18,6.6c-6.8,2.7-13.8,4.5-21,5.8c-5.7,1-10.9,3.2-15.4,6.8
	c-6.3,4.9-12.5,10-18.8,14.9c-5.9,4.6-4.3,4.3-11.9,4.4c-6.9,0.1-13.7-0.1-20.6,0c-7.2,0.1-14.5,0.8-21,4.1
	c-4.3,2.2-8.7,3.4-13.3,4.3c-9.4,1.9-18.4,4.9-26.7,9.7c-3.5,2-6.9,4.4-10.2,6.7c-2.3,1.6-3.6,3.7-3.5,6.7c0.1,4.4,0,8.8,0,13.5
	c1.1-0.4,2-0.6,2.8-0.9c3.5-1.2,6.9-2.6,10.4-3.7c1.8-0.6,3.8-0.8,5.6-0.9c4.5,0,8.7-1.1,12.7-3.2c4.6-2.4,9.2-4.9,13.7-7.5
	c9.7-5.7,20-10,30.9-12.7c1.2-0.3,2.3-0.7,3.5-1c1.7-0.5,1.9-0.4,3.8,0.8c-0.2,1.4-1,2.4-2.4,3c-9.5,4.5-17.7,10.8-25.1,18.3
	c-4.7,4.8-9.7,9.3-14.5,14c-3.9,4-7.8,7.9-12.8,10.6c-3,1.7-5.5,4.3-7.9,6.9C-2.3,454.5-8.4,460-15,465c-1.6,1.2-2.2,2.5-2.2,4.5
	c0.1,5.4-0.1,10.9-0.1,16.3c0,0.8,0.1,1.5,0.1,2.8c2.2-1.7,4-3.1,5.7-4.6c2.8-2.6,5.7-5.2,8.3-8c2.4-2.6,4.7-5.2,6.7-8.1
	c3.5-5.1,7.7-9.1,13.7-11c2.5-0.8,4.8-2.2,7-3.6c3.5-2.3,5.6-5.6,6.2-9.8c1.1-7.4,5.1-12.7,11.7-15.9c2.9-1.4,6-2.7,9.1-3.6
	c8.3-2.3,16-6,23.1-10.7c7.2-4.8,14.4-9.5,21.5-14.4c7.3-5,14.9-9.7,23.2-12.8c7.2-2.7,14.5-4.3,22.2-4.4c4,0,7.5-1.3,10.5-3.9
	c6.5-5.6,13.8-9.9,22.2-11.9c2.2-0.5,4.4-0.8,6.6-1.2c2.2-0.4,4-1.1,5-3.5c1.3-3.1,4-4.2,7.2-4.4c2.1-0.1,4.2-0.1,6.2-0.2
	c4-0.3,7.1-2.3,9.7-5.1c1-1.1,1.9-2.1,3-3.1c2.4-2.4,5.2-4.2,8.4-5.3c22.9-7.9,45.9-15.9,68.8-23.9c13.3-4.6,26.5-9.3,39.1-15.8
	c11.5-5.9,22.4-12.7,32.2-21.2c4.3-3.7,8-8,11.3-12.7c1.4-2,3-4,4.8-5.6c10.5-9.1,20.9-18.4,32-26.7c5.9-4.4,12.3-8.1,19.1-10.8
	c23.9-9.4,48-18.4,72.6-25.8c11.6-3.5,23.4-5.1,35.5-4.6c6.2,0.3,12.4,1,18.4,2.8c6.7,2,13.6,1.9,20.4,1.6c9.3-0.4,18.7-1.2,28-1.2
	c13.4,0,26.5,2.5,39.3,6.4c7.7,2.3,15,5.4,22.3,8.6c9.3,4.1,18.5,8.2,27.8,12.4c0.8,0.4,1.6,0.7,2.7,1.3c-2.3,1.3-4.2,2.7-6.6,3.2
	c-8.3,1.5-16.7,2.9-25.2,3.3c-4.3,0.2-8.4-0.4-12.4-2c-12.2-4.8-24.9-6.2-37.9-5.6c-8.3,0.4-16.6,1.3-24.8,2.1
	c-15.4,1.5-30.8,2-46.1-0.7c-1.9-0.3-4-0.2-6,0.1c-7.5,0.9-15,2-22.6,2.8c-3.5,0.4-7,0.4-10.5,0.3c-6.2-0.2-12.3,0-18.3,1.9
	c-2,0.7-4.1,1.4-6,2.3c-4.2,2-8.5,3.3-13,3.8c-6.8,0.8-12.8,3.5-17.9,8.1c-5.4,4.8-11.2,8.9-17.4,12.7c-7.2,4.5-14.2,9.3-20.3,15.2
	c-2,1.9-4,3.9-5.8,6.1c-11.3,13.8-25.7,22.9-42.4,28.5c-4.2,1.4-8.6,2.5-12.8,3.9c-10.6,3.4-20,8.8-28.1,16.5
	c-2.6,2.5-5.6,3.8-9.3,3.7c-10.3-0.4-19.8,2.4-28.6,7.4c-3.7,2.1-7.3,4.6-10.9,6.9c-3.1,2-6.4,3.7-10.2,3.9c-1.4,0.1-2.9,0-4.3-0.2
	c-6.9-0.7-12.9,1.5-17.6,6.5c-9.5,10.1-20.7,17.7-32.9,24c-13.3,6.8-26.4,14-39.8,20.6c-15.3,7.6-31.1,13.8-47.3,19
	c-6.9,2.2-14,3.1-21.1,4.3c-1.3,0.2-2.5,0.5-3.8,0.7c-4.9,0.7-8.6,3.2-11.6,7c-2.3,3-4.5,6.2-6.8,9.3c-1.9,2.4-3.8,4.8-5.9,6.9
	c-3.8,3.6-8.4,4.7-13.5,3.7c-2.4-0.5-4.9-1-7.3-1.2c-6.3-0.4-11.4,2.1-15.3,6.9c-1.6,2-2.9,4.2-4,6.5c-1.2,2.4-2.5,4.6-4.2,6.6
	c-8.2,9.6-17.1,18.4-26.8,26.4c-3.7,3.1-7.2,6.6-10.7,9.9c-3.8,3.6-5.9,7.9-5.9,13.1c0.1,5,0.2,10.1,0.2,15.1c0,1.3,0.7,1.9,1.9,2.4
	c3.3-2.4,7-4.4,9.8-7.6c4-4.7,7.9-9.4,11.7-14.3c1.2-1.5,2-3.3,2.9-5c1-1.9,1.9-3.9,3-5.7c1.7-2.7,4-4.8,6.9-6.1
	c6-2.7,11.4-6.5,16.7-10.2c1.1-0.7,2-1.9,2.5-3.1c4-8.1,10.3-13.4,18.7-16.5c12.1-4.5,24.1-9.3,36.2-13.9c5.8-2.2,11.7-3.6,17.9-4.2
	c5.4-0.6,10.3-2.7,14.8-5.8c5.7-4,11.3-8,17.2-11.8c3.8-2.5,7.9-4.5,12.3-7c0.1,1,0.4,1.7,0.2,2.1c-0.4,0.9-0.9,1.9-1.6,2.6
	c-5.2,5.5-10.5,11-15.7,16.5c-4.8,4.9-10.2,8.9-16.1,12.3c-12.3,7.2-25.1,13.3-37.9,19.5c-3.4,1.6-6.8,3.3-10.2,4.9
	c-9.6,4.6-17.1,11.4-22.8,20.3c-1.1,1.7-2.2,3.4-3.4,4.9c-3.3,4.2-7.3,7.6-12.2,9.8c-5.3,2.3-9.5,5.9-12.5,10.8
	c-1.3,2.1-3.1,3.3-5.7,3.2c-3.4,0-6.4,1.1-9.2,2.9c-1.9,1.3-3.8,2.7-5.6,4.1c-2.3,1.7-4.5,3.6-6.8,5.3c-1.3,1-2.9,1.6-4.3,2.5
	c-1.5,0.9-2.9,1.9-4.2,3.1c-1.6,1.4-3.1,3-4.7,4.4c-0.1,0.1-0.4,0-0.7,0c0-191.7,0-383.4,0-575.1c0.8,0,1.6,0,2.4,0
	c-2.4,3.1-1.1,6.6-1.4,10.2c0.8-0.2,1.3-0.3,1.7-0.5c7.2-3,14.4-5.9,21.7-8.9c0.4-0.2,0.7-0.5,1.1-0.8c19.2,0,38.4,0,57.6,0
	c-2.3,1.8-4.7,3.5-7,5.3c-2.3,1.7-4.6,3.5-7,5.1c-4,2.6-8.5,4.1-13.3,4.4c-9,0.7-17.9,2.3-26.4,5.7C2.7,6.3-5.2,10.2-13.4,13.7
	c-2.8,1.2-4,3-3.9,6.1c0.1,11,0,22-0.1,33.1c0,0.6,0.1,1.2,0.2,2.1c1.3-0.3,2.5-0.5,3.6-0.7c8.3-2.1,16.2-5.4,23.8-9.2
	c9.9-5,19.2-11.2,28.7-16.9c14.5-8.7,27.9-19,41-29.5c4.4-3.6,7.9-7.9,10-13.2c0.3-0.9,0.4-1.8,0.6-2.7c17.1,0,34.2,0,51.3,0
	c-1.7,1.9-3.3,3.9-5,5.8c-2.8,3.1-5.1,6.5-6.7,10.4c-1.6,3.9-3.8,7.6-6.4,10.9c-5.8,7.4-13.5,12.2-22.3,15.1
	c-8.9,3-16.5,7.9-23,14.6c-2.2,2.3-4.5,4.5-6.9,6.7c-7.7,7-16.1,12.8-25.8,16.7c-7.4,3-15.3,4.3-23,6.3c-6.8,1.8-13.9,2.3-20.9,2.3
	c-4.9,0.1-9.7,0.2-14.6,0.3c-2.8,0.1-4.6,1.6-4.6,4.3c-0.1,3.9-0.1,7.8-0.1,11.7c0,0.5,0.2,1,0.3,1.7c2.6-0.7,5.1-1.5,7.5-2.1
	c10.6-2.9,21.1-3,31.5,1.3c1.6,0.7,3.4,1,5.1,1.2c3,0.3,6.1,0.5,9.1,0.7c3.3,0.2,6.5,0.4,9.8,0.7c7,0.5,14,1.2,21,0.3
	c6.9-0.8,13.2-3.1,18.7-7.3c7.1-5.4,15.2-8.8,23.5-11.7c4.3-1.5,8.8-1.5,13.1,0.2c4,1.6,7.5,0.9,10.6-2.1c4.5-4.3,9-8.7,13.5-13
	c2.9-2.8,5.9-5.6,8.9-8.4c1.8-1.7,4-2.9,6.5-3.5c8.3-2,16.6-4.1,24.9-6.1c4.1-1,8.3-1.7,12.3-3c6.8-2.1,12-6.5,14.5-13.3
	c2.1-5.8,3.9-11.7,5.3-17.6c1.2-5.1,2.5-10.2,4.2-15.2c0.9-2.6,1.8-5.3,2.6-7.9c13.9,0,27.8,0,41.7,0c-0.5,0.5-1.1,0.9-1.5,1.5
	c-2.1,3.5-4.3,6.9-6.3,10.5c-2.2,4-3.2,8.3-2.3,12.9c0.2,0.8,0.1,1.8-0.1,2.6c-1.1,5.6-3.5,10.7-7.4,14.8
	c-5,5.3-10.2,10.4-15.5,15.3c-4.1,3.8-9.1,6.2-14.6,7.4c-6,1.4-12,2.9-17.9,4.6c-4.8,1.4-9.4,3-14.1,4.6c-3.5,1.2-5.4,3.9-5.8,7.6
	c-0.2,2.1-0.3,4.3-0.5,6.4c-0.2,2.9-0.1,5.8-0.5,8.6c-1.1,7.9-5.4,13.2-13.2,15.4c-3.5,1-7.1,1.7-10.8,2.3
	c-15.5,2.3-31,4.4-46.6,5.8c-4.6,0.4-9.2,1.4-13.4,3.4c-16.3,7.5-33.2,12.7-50.8,16.1c-8.6,1.7-17.1,2-25.6-0.7
	c-9.6-3.1-19.4-4.4-29.5-4.2c-2.1,0-3.9,0.6-5.7,1.6c-1.5,0.8-2.3,2-2.3,3.8c0,8.8-0.1,17.6-0.2,26.4c0,0.4,0.1,0.8,0.2,1.3
	c0.7-0.1,1.3-0.2,1.9-0.3c13.2-3.4,26.6-5,40.3-4.7c9.7,0.2,19.3-0.1,29-0.1c8.9,0,17.9,0,26.8,0.1c8.8,0,16.4-2.5,22.5-9.3
	c8.2-9.2,18-16.3,29.6-20.7c1.8-0.7,3.6-1.4,5.4-2.1c11.8-4.4,23.7-8.7,35.5-13.1c4.4-1.6,8.7-3.1,13.4-3.7
	c7.4-1,13.2-4.5,17.5-10.6c2.1-3,4.2-6.1,6.3-9c6.1-8.4,14.1-13.7,24.6-15c9.7-1.2,16.7-6.2,21.1-15c2.8-5.6,5.8-11,8.8-16.5
	c2.3-4.3,4.2-8.8,5-13.6c0.3-1.8,0.8-3.6,1.4-5.3c1.6-5.2,4.2-9.9,8.4-13.5c1.8-1.6,3-3.5,3.8-5.7c1.5-3.8,1.1-7.2-2.2-9.9
	C292.6-17.4,303.3-17.4,314-17.4z"/>
<path d="M505.5-17.4c-7.5,3.3-13.8,8.6-20.5,13.1c-3.4,2.3-6.9,4.7-10.4,6.8c-7,4.3-14.6,6.7-22.7,7.9c-13.1,1.9-25.8,5.2-37.4,12
	c-3.6,2.1-7.7,2.5-11.8,2.9c-5.7,0.6-11.5,0.8-17.1,1.8c-12.1,2.2-22.8,7.6-32.5,15.1c-4,3.1-7.7,6.4-11.4,9.9
	c-6.2,5.9-13.6,9.7-21.8,12.1c-5.4,1.6-10.8,3.3-16.2,5.2c-4.2,1.5-8,4-11.4,7c-6.4,5.5-13.1,10.5-20.4,14.7
	c-10.6,6.1-20.4,13.2-30.1,20.5c-3.6,2.7-7.2,5.4-10.8,7.9c-2.1,1.5-4.4,2.7-6.5,4.1c-2.4,1.6-4.6,1.2-7.2-0.2
	c0.9-1.7,1.7-3.3,2.7-4.8c2-2.8,4.2-5.5,6.1-8.3c3-4.3,6.2-8.6,8.9-13.1c3.2-5.2,7.3-9.1,12.8-11.8c3.6-1.8,7.1-4,10.5-6.2
	c2.3-1.4,4-3.3,5-5.9c1.5-4,4.1-7.4,7.2-10.4c4-4,8.5-7.5,13.3-10.5c5.4-3.3,11.2-5.4,17.5-5.9c6.4-0.6,11.5-3.5,15.3-8.7
	c1-1.4,2.1-2.9,3.4-4c1.6-1.3,3.4-2.6,5.3-3.2c8-2.2,14.5-6.6,20.3-12.3c3.1-3.1,6.7-5.7,10.3-8.3c4-2.8,7.9-5.7,11.8-8.7
	c5.9-4.6,12.2-8.1,19.3-10.3c7.8-2.5,15.7-5,23.5-7.5c0.7-0.2,1.5-0.6,2.2-0.9C443.7-17.4,474.6-17.4,505.5-17.4z"/>
<path d="M798.6-17.4c-2.6,1.8-4.9,4-6.5,6.8c-0.5,0.9-1.5,1.6-2.4,2.3c-2.9,2.2-5.7,4.4-8.7,6.4c-6.8,4.8-12.7,10.4-17.8,17
	c-4.3,5.6-8.8,11-14,15.8c-3.6,3.4-7.7,6.2-12.8,6.6c-7.7,0.6-14.7,3.5-21.9,5.9c-3.4,1.1-6.7,1.2-10.2,1
	c-13.1-0.8-26.2-0.4-39.2,1.1c-9.3,1.1-18.4,3-27.5,5.4c-4.1,1.1-8.2,2.3-12.3,3.2c-1.8,0.4-3.7,0.5-5.5,0.3
	c-7.5-0.7-14.6,0.5-21.2,4.5c-5.7,3.4-11.3,6.9-17.1,10.2c-1.6,0.9-3.2,1.8-4.9,2.4c-2.5,0.9-5.1,0.9-7.4-0.6
	c-2.4-1.5-4.7-1.3-7.1-0.4c-4.4,1.8-8.9,3.5-13.2,5.7c-5.7,3-11.7,4.6-18.1,4.8c-13.7,0.5-27.5,1-41.2,1.5
	c-4.5,0.1-8.9,0.1-13.4,0.1c-0.9,0-1.9-0.1-3-0.6c0.8-0.5,1.7-1.1,2.6-1.5c5.7-2.6,11.3-5.2,17-7.7c6.2-2.7,12.4-5,19-6.6
	c4.8-1.2,9.2-3.3,13.1-6.3c5.1-3.9,10.7-5.8,17.1-6c2.8-0.1,5.6-0.6,8.3-0.9c2.3-0.3,4.3-0.9,5.7-3c1.3-2,3.4-2.8,5.6-2.6
	c6.3,0.6,11.9-1.6,17.4-4.3c11.2-5.5,22.5-10.7,33.8-16c3.2-1.5,6.1-3.5,8.3-6.3c3.5-4.4,8.2-6.7,13.6-7.4c6.5-0.9,12.8-2.5,19-4.9
	c8-3,16.3-3.7,24.7-3.5c7,0.2,13.7,2,20.5,3.6c-0.1,1.6-1.3,1.7-2.4,2c-4.1,0.9-8.3,1.7-12.4,2.7c-6.9,1.7-13.8,3.4-20.6,5.3
	c-2.1,0.6-4.1,1.5-6,2.5c-2.7,1.4-4.7,3.6-6.1,6.5c0.7,0,1.3,0.1,1.7,0c7.1-1.3,14.2-2.1,21.4-1.9c2.9,0.1,5.7,0.5,8.6,0.7
	c13.5,1.1,26.8,0.3,39.8-4.1c7.4-2.5,14.5-6,21.2-10.1c5.7-3.5,10.2-8.2,13.1-14.3c2.5-5.2,5.2-10.3,7.8-15.4
	C776.2-17.4,787.4-17.4,798.6-17.4z"/>
<path d="M623.5-17.4c-3.8,1.6-7.2,3.8-10.5,6.2c-6.3,4.8-13.4,7.7-20.8,10.1c-3.9,1.2-7.7,2.8-11.4,4.3c-4.1,1.7-7.9,4.1-11.3,7.2
	c-1.4,1.3-3,2-4.9,2.4c-14.4,3.5-28.9,7-43.3,10.5c-7.1,1.7-14.1,3.5-20.7,6.7c-6.2,3-11.7,7.1-15.7,12.7
	c-6.3,8.7-14.6,14.5-24.5,18.1c-5.2,1.9-10.6,3.5-16,5.1c-8.3,2.6-16.3,6-23.9,10.3c-3.7,2.1-7.6,3.7-11.6,5.1
	c-6.4,2.3-13,3.9-19.7,4.8c-3.5,0.5-6.8,1.6-9.8,3.6c-2.3,1.5-5,1.4-7.6,1.7c-9.1,0.7-18.2,1.2-27.2,2.1c-7.2,0.7-14.5,1.5-21.5,3.7
	c-1.3,0.4-2.8,0.6-4.2,0.6c-7.9,0-15.8-0.2-23.7-0.2c-3,0-6.1,0.2-9.1,0.3c-0.8,0-1.6,0.1-2.5,0.1c0-2.8,1-4.8,3.4-6
	c0.9-0.4,1.8-0.7,2.7-1c4.1-1.3,8.3-2.5,12.3-3.9c7.3-2.5,14.7-4.8,22.4-6c2.2-0.3,4.3-1.2,6.3-2.1c4.3-1.8,8.6-4,13.3-4.6
	c2.4-0.3,5-0.4,7.4-0.1c4.9,0.8,9.4,0,13.6-2.5c1-0.6,2-1.3,3-2c2.4-1.7,5-2.7,7.9-3.1c6.9-0.8,12.9-3.5,17.9-8.4
	c2.3-2.3,4.8-3.1,8-2.9c5.7,0.3,11.5,0.4,17.2,0.4c6.1,0,11.3-2,15.5-6.7c2.2-2.5,4.9-4.6,7.6-6.5c3.5-2.4,7.4-3.6,11.7-3.7
	c6.4-0.1,11.8-2.3,16.2-7.1c2.9-3.2,6.5-5.2,11-5.9c5.6-0.8,9.8-4.1,12.8-8.9c2.2-3.5,4.6-6.7,7.5-9.6c4.4-4.3,9.3-7.8,14.7-10.7
	c7.7-4.3,15.5-8.5,23.3-12.8c0.7-0.4,1.4-1,2.1-1.5C568.8-17.4,596.1-17.4,623.5-17.4z"/>
<path d="M213.8-17.4c-2.6,1.8-4,4.5-4.8,7.5c-1.3,5.1-2.7,10.2-3.7,15.3c-1,5.2-3.7,9-8.5,11.4c-2.9,1.5-5.4,3.6-8.1,5.5
	c-2.9,2-5.8,4.3-8.8,6.2c-4.7,2.8-9.8,4.1-15.3,4.1c-3.2,0-6.4,0.4-9.5,0.9c-3.7,0.7-6.9,2.5-9.6,5.1c-0.8,0.8-1.6,1.5-2.5,2.2
	c-2.2,1.8-4.7,3-7.7,3c-6.1,0.1-12.3,0.2-18.4,0.2c-2.5,0-5,0-7.4,0c-1.1,0-1.7-0.3-1.5-1.8c4.5-2.1,8.8-5,13.9-5.8
	c6.7-1,12.1-4.3,16.7-9.1c1.8-1.8,3.4-3.8,5.1-5.7c4.3-4.7,9.2-8.6,15.5-10.5c1.8-0.5,3.6-0.9,5.3-1.4c7.4-2.2,12.9-6.5,15.9-13.7
	c1.9-4.5,3.8-9,5.7-13.5C195.2-17.4,204.5-17.4,213.8-17.4z"/>
<path d="M392.7-17.4c-3.6,0.8-7.2,1.5-10.7,2.4c-5.6,1.3-11.2,2.7-16.8,4c-2,0.5-3.7,1.4-5.2,2.8c-0.5,0.5-1.1,0.9-1.6,1.5
	C352.2,0,344.5,4.4,336.2,7.9c-13.1,5.7-26.3,11.1-39.5,16.6c-1.7,0.7-3.5,0.9-5.3,1.3c-0.1-0.1-0.2-0.3-0.3-0.4
	c1-1.3,1.8-2.8,2.9-3.9c6.1-6.4,12.3-12.8,18.6-19c1.6-1.6,3.5-2.8,5.4-3.9c2.2-1.4,4.7-2,7.3-1.9c3.7,0.1,7.3-0.6,10.8-2
	c7.7-3.3,15.5-6.4,22.6-10.9c0.5-0.3,0.9-0.8,1.4-1.2C371-17.4,381.8-17.4,392.7-17.4z"/>
<path d="M742-17.4c-2,1.3-3.5,3.1-4.8,5.2c-2.7,4.4-6.7,7.3-11.6,8.6c-5.3,1.4-10.7,2.4-16.1,3.5c-0.1,0-0.3-0.1-0.7-0.2
	c0.4-0.6,0.7-1.1,1.1-1.5c2.9-3.2,6.4-5.7,10.1-8c3.2-2.1,6.5-4.1,9.7-6.1c0.6-0.4,1.2-1,1.8-1.5C734.9-17.4,738.4-17.4,742-17.4z"
	/>
<path d="M679.1-17.4c-0.2,0.2-0.4,0.5-0.6,0.7c-6.8,4.4-13.6,8.8-20.5,13.2c-2.3,1.5-5.7,2.1-8.4,1.7c-0.3-1.2,0.8-1.5,1.4-1.9
	c4.7-3.5,9.3-6.9,14-10.4c0.9-0.7,1.8-1.3,2.7-2c0.3-0.2,0.3-0.8,0.4-1.2C671.8-17.4,675.4-17.4,679.1-17.4z"/>
<path d="M338.3,571.9c0.2,0.8,0.4,1.6,0.6,2.5c0.3,1.7,0.8,2.4,2.5,2.3c7.7-0.1,15.3,0.7,23-0.8c3.8-0.8,7.3-2.2,10.6-4.3
	c1.3-0.8,2.6-1.6,3.9-2.3c3.4-1.7,3.6-1.9,5.9-4.6c0.2,0.6,0.3,1,0.5,1.7c0.8-0.4,1.6-0.7,2.4-1.1c7-3.4,14-7.1,21.2-10.2
	c12.8-5.4,25.8-10.4,38.7-15.4c20.9-8.1,41.9-16,62.9-24c10.9-4.2,21.5-9.1,31.5-15.2c10.9-6.6,22.3-12.1,34.6-15.6
	c8.2-2.3,15.8-6.1,23.5-9.6c10.3-4.7,20.7-9.2,31.1-13.9c16.7-7.6,32.8-16.2,47.7-27.1c3.7-2.7,7.2-5.6,10.8-8.4
	c0.3-0.2,0.7-0.4,1.1-0.5c-0.1-0.2-0.3-0.4-0.4-0.6c-0.6,0.1-1.2,0.2-1.7,0.4c-10.7,3.4-21.3,6.6-32,10.1
	c-11.5,3.8-22.9,7.6-34.2,11.7c-7,2.6-14,5.4-20.5,9.2c-4.7,2.8-10.1,3.9-15.3,5.5c-8.8,2.8-17.8,5.2-26.5,8.2
	c-9.6,3.3-18.6,7.9-26.6,14.1c-7.4,5.7-15.6,9.9-24.3,13.2c-16,6.1-32,12-47.9,18.1c-12.4,4.8-24.6,9.8-37,14.6
	c-2.6,1-5.2,2.1-7.9,2.8c-6.8,1.8-12.9,5-19.2,7.9c-11.3,5.2-22.7,9.9-34.8,12.7c-3.6,0.8-7.2,1.5-10.8,2.2
	c-0.8,0.1-1.6,0.1-2.5,0.2c0.1-0.4,0-0.6,0.2-0.8c3.3-3.9,6.6-7.8,10.1-11.5c1.7-1.8,3.7-3.3,5.8-4.6c22.8-14.1,45.9-27.5,69.5-40.1
	c10-5.3,20.2-10.2,30.4-15.4c11.9-6.1,23.4-12.8,34-21c5.3-4.1,11.3-6.9,17.5-9.2c17.4-6.7,34.9-13.4,52.3-20.2
	c6-2.3,11.7-5.1,17.7-7.4c4.3-1.7,8.7-3.2,13.2-4.3c6.5-1.6,12.5-4.3,18.8-6.5c13.4-4.8,27.2-8.2,41.3-10.2
	c10-1.4,20.1-2.8,29.9-5.4c15.4-4.2,29.7-10.8,43.4-18.9c13.5-8,27.2-15.8,40.9-23.6c1.5-0.9,3.2-1.4,5.2-2.3
	c-0.2,1-0.3,1.4-0.5,1.8c-2.1,5.9-5.7,10.9-9.9,15.5c-5,5.5-10.7,10.1-16.2,14.9c-13.8,12.2-27.7,24.4-41.3,36.9
	c-5.2,4.7-9.8,10.1-14.4,15.4c-8.4,9.9-18.4,17.5-30,23c-15.4,7.3-30.7,14.7-46.1,21.9c-18,8.5-36,16.9-54.1,25.1
	c-31.7,14.4-63.5,28.7-95.3,42.8c-6.7,3-13.9,4.9-20.8,7.2c-12,4-23.9,8-35.9,12c-4.2,1.4-8.4,2.5-12.6,3.7
	c-0.7,0.2-1.4,0.5-2.4,0.8c0.5,0.3,0.7,0.5,0.9,0.5c8.5,0.4,16.9,0.6,25.2-1.7c2.1-0.6,4.2-1.2,6.1-2.1c6.9-3.2,14.1-5.5,21.4-7.8
	c12.2-3.9,24.3-8,36.4-11.9c15.7-5.1,31.5-9.5,47.7-12.6c4.6-0.9,9.3-1.4,14-2.1c3-0.4,5.9-1.3,8.6-2.8c15.1-8.5,29.9-17.7,43.8-28
	c15.9-11.7,33.1-20.9,51.3-28.2c15-6.1,30.1-12,45.1-18.2c27.9-11.6,54.6-25.4,79.6-42.5c7.2-4.9,14.3-10,21.3-15.2
	c3.6-2.7,7-5.9,10.5-8.8c2.6-2.1,5.2-4.2,7.8-6.4c1.3-1.1,2.5-2.2,4-3.4c0.1,0.6,0.2,1.2,0.2,1.8c0,6.1-0.1,12.2,0,18.2
	c0,1.6-0.5,2.6-1.9,3.5c-33.3,22.1-67.5,42.8-102.5,62.2c-2.6,1.4-5.2,2.9-7.7,4.4c-4.2,2.5-8.7,3.9-13.6,4.4
	c-14.7,1.6-28.9,5.4-42.6,10.7c-9.8,3.8-19.5,8-28.5,13.5c-11.3,6.9-21.1,15.5-30.3,24.9c-3.7,3.8-7.3,7.6-10.8,11.6
	c-3.4,4-7.6,6.9-12.5,8.5c-6.8,2.3-13.6,4.5-20.5,6.6c-11.8,3.5-23,8.1-33.7,14.3c-3,1.8-6.2,3.4-9.2,5.1c-0.5,0.3-1.1,0.6-2.1,1.2
	c1.4,0.2,2.3,0.4,3.2,0.5c5.3,0.2,10.7,0.4,16,0.6c3.1,0.1,6.2,0.1,9.3,0.3c4.8,0.3,9.4-0.6,13.7-2.7c5.1-2.3,10.1-4.8,15.1-7.2
	c22.2-10.9,44.4-21.5,67.1-31.2c7.1-3,13.8-6.7,20.1-11.1c5.2-3.6,10.9-6,16.9-7.7c10.9-3,21.7-6.1,32.5-9
	c6.5-1.8,12.2-5.1,17.4-9.4c2.3-1.9,4.6-3.9,7-5.8c4.1-3.2,8.6-5.2,13.8-6.2c4.3-0.8,8.6-2.5,12.7-4.1c3.1-1.2,5.4-3.4,7.1-6.2
	c4.2-7.1,10.5-11,18.5-12.4c2.4-0.4,4.8-1.2,7.2-1.9c2.5-0.8,4.8-2.1,6.8-3.9c10.3-9.4,20.7-18.8,30.9-28.2c0.5,1.3,0.8,30,0.3,36.8
	c-1.8,1.7-3.4,3.2-5,4.7c-6.9,6.3-13.9,12.5-22.3,16.8c-4.2,2.1-8.4,4.2-12.8,6.1c-9.4,4.1-18,9.7-26.6,15.2
	c-14,9-28.1,17.8-43.1,25c-9.3,4.4-19,8.1-28.3,12.3c-14.7,6.6-29.4,13.3-44,20.2c-4.8,2.2-9.2,5.1-13.8,7.7
	c-0.2,0.1-0.5,0.2-0.6,0.4c-0.2,0.4-0.6,0.8-0.5,1.2c0.1,0.3,0.6,0.7,1,0.7c1.4,0.1,2.7,0,4.1,0c9,0,18.1,0,27.1,0
	c0.6,0,1.2,0.1,1.8,0.4c-221.5,0-443,0-664.5,0c0-0.1-0.1-0.2-0.1-0.3c0.3-0.1,0.7-0.4,1-0.4c9.9,1.8,18.2-2,25.8-7.8
	c1-0.7,1.5-1.6,1.9-2.9c0.6-1.9,2.4-3.2,4.3-3.9c2.1-0.8,4.3-1.1,6.4-1.6c0.5-0.2,1.1-0.6,1.5-1c2.6-2.8,5-5.8,7.7-8.6
	c2.3-2.4,4-5,5.2-8.2c2.2-6,6-11.2,10.6-15.5c5.9-5.5,11.9-10.9,18.2-16c22.6-18,44.4-36.8,66.3-55.6c19.2-16.4,38.5-32.7,58.8-47.7
	c14.1-10.4,28.5-20.3,43.8-28.9c10.6-5.9,21.6-10.8,33-14.7c25.9-9,50.3-21.3,73.7-35.5c19.4-11.7,38.1-24.4,56.6-37.4
	c13.6-9.5,28-17.6,44-22.5c12.6-3.9,25.2-7.7,37.8-11.6c4.2-1.3,8.6-1.9,13-1.8c5,0.1,9.9,0.2,14.8,0.5c5.2,0.3,10.4-0.7,15.5-1.1
	c5.3-0.4,10.6-0.1,15.8,0.5c5.6,0.7,11.2,1.7,16.8,2.5c5.7,0.7,11.3-0.1,16.8-1.6c2.8-0.8,5.7-1.6,8.5-2.6
	c10.3-3.9,20.9-5.1,31.8-4.8c8.8,0.2,17.5,1.2,26.3,2.2c6.7,0.7,13.5,1.5,20.2,2.1c6.4,0.6,12.9,1.2,19.3,1.8c1.7,0.2,3.4-0.1,4.8-1
	c2.3-1.4,4.8-2.7,6.7-4.6c5.1-5,11.4-6.7,18.3-7.2c2.9-0.2,5.7-0.5,8.6-1c4.4-0.7,8.3-2.7,11.6-5.8c5-4.6,10.8-6.4,17.5-4.3
	c1.8,0.6,3.4,1.7,5,2.8c3.6,2.4,7.1,4.9,10.7,7.2c3.4,2.2,7.2,2.6,11.1,1.8c6.2-1.3,12.3-2.8,18.4-4.3c0.6-0.1,1.2-0.5,1.7-0.8
	c3.3-2.4,6.6-4.8,9.9-7.2c2.9-2.2,5.4-4.9,7.7-8.5c0,7.6,0,14.7,0,21.8c-7.8,2.3-15.2,6-23.2,7.6c-3.7,0.7-7.4,1.1-11.2,0.4
	c-2-0.4-3.8,0-5.5,1c-2.6,1.6-5.3,3-7.9,4.5c-7.2,4.2-14.9,6.9-22.8,9.2c-3.8,1.1-7.7,2.2-11.4,3.5c-4.8,1.7-9.5,2.3-14.5,0.4
	c-4.2-1.6-8.6-1.4-13-0.8c-10.7,1.3-21.4,2.7-32.1,4c-5.2,0.6-10.3,1-15.5,1.5c-6.1,0.7-11.9,2.1-17.5,4.7c-1.3,0.6-2.9,1.1-4.4,1.1
	c-7.1,0.2-14.1,1.6-21.1,2.6c-5.1,0.7-10.1,1.5-15.2,2c-2.6,0.2-5.3-0.1-7.9-0.4c-7.8-0.8-15.3,0.2-22.6,2.9
	c-4.6,1.7-9.2,2.3-14.1,2.2c-11.7-0.3-23.1,0.9-34.1,5.1c-6.8,2.6-13.2,6.1-18.9,10.8c-3.7,3-7.8,5.3-12.3,6.9
	c-6.4,2.4-12.9,4.8-19.4,6.9c-12.6,3.9-24,10-34.9,17.3c-10,6.7-19.9,13.6-30.1,20.1c-16.2,10.3-32.5,20.3-48.9,30.3
	c-27.5,16.7-55.1,33.3-82.7,49.9c-5.3,3.2-10.7,6.1-16,9.2c-0.5,0.3-1,0.4-1.5,0.7c-0.6-1.7,0.4-2.5,1.3-3.4
	c4.6-4.2,9.1-8.5,13.7-12.7c7.8-7.2,15.6-14.5,24.1-20.8c5.8-4.3,11.4-9,17.2-13.4c9.4-7.1,18.7-14.2,28.2-21.1
	c32.7-24.1,65.4-48.2,98.1-72.3c3-2.2,6.1-4.3,9.2-6.6c7.7-5.7,16.2-9.9,24.8-14c2.1-1,4.2-2,6.2-3c0.5-0.2,0.9-0.6,1.2-1.2
	c-2.1,0.4-4.2,0.7-6.2,1.1c-21,4.1-40.9,11.3-59.9,21c-20.3,10.3-39.9,21.6-58.9,34c-11.5,7.5-22.8,15.3-34.1,23.2
	c-10.6,7.4-21.9,12.9-34.7,15.7c-21.8,4.7-41.1,14.7-58.3,28.8c-10.2,8.3-19.9,17-29.4,26c-10.7,10.2-21.3,20.5-32.2,30.6
	c-10.4,9.7-21.8,18.3-32.9,27.1c-10.8,8.5-21.4,17.2-31.3,26.9c-10.3,10.1-19.2,21.2-25.7,34.1c-4.2,8.4-10.1,15.7-15.6,23.3
	c-1.1,1.5-2.3,3.1-3.4,4.6c-0.3,0.4-0.5,0.9-0.9,1.6c1,0,1.7,0.1,2.4,0.1c6.2,0,12.5,0,18.7,0c1.3,0,2.6-0.1,3.8-0.4
	c1.3-0.2,2.4-0.9,3.1-2c4.8-7.8,11.7-13.6,18.8-19.3c10.5-8.4,21-16.7,31.2-25.4c10-8.6,18.6-18.5,25-30.1c1.9-3.5,4.8-6.2,7.5-9
	c14-14.7,28-29.4,41.9-44.2c6.5-6.9,13.5-13.1,21.1-18.7c14.4-10.7,28.7-21.4,43.9-30.9c6.3-4,12.7-7.7,19.3-11.1
	c4.3-2.2,9-3.6,13.6-5.3c1.2-0.5,2.4-0.8,3.6-1.2c0.9,0.5,1,1.1,0.4,1.8c-0.6,0.6-1.3,1.2-2,1.7c-17.4,11-33.2,24.2-48.4,38
	c-6.4,5.8-12.3,12.4-18.1,18.8c-8.5,9.4-16.9,19-25.2,28.6c-12.7,14.6-23.2,30.7-32.1,47.9c-2.5,4.8-4.9,9.7-7.5,14.5
	c-3.6,6.4-8.2,11.9-14,16.5c-3.2,2.6-6.2,5.5-9.1,8.5c-2.5,2.5-4.2,5.6-5.3,9c-0.5,1.5-1.3,2.7-2.6,3.6c-3.1,2.2-6.3,4.4-9.4,6.7
	c-0.7,0.5-1.3,1-2.5,1.9c1.3,0.1,2,0.2,2.7,0.2c12.9,0,25.7,0,38.6,0c1.7,0,2.6-0.5,3.3-2.1c11.5-24.8,24.3-48.9,36.6-73.3
	c3-6,6-12,9.2-17.9c2.9-5.5,6.5-10.5,11.5-14.3c2-1.5,4.1-2.7,6.3-4.1c0.7,1.4-0.1,2.3-0.5,3.1c-3.2,6.1-5.9,12.4-7.8,19
	c-2.9,10.1-4.3,20.5-4.2,31c0,5.4-0.8,10.6-2.6,15.7c-2.3,6.6-4.5,13.3-6.7,20c-1.2,3.8-3.1,7.2-5.3,10.5c-2.2,3.3-4.4,6.5-6.6,9.7
	c-0.5,0.7-0.9,1.4-1.5,2.4c3.6,0.5,7,0.6,10.2-0.4c2.1-0.7,3.8-2,5.1-3.8c5.9-8.6,13.3-15.7,20.8-22.8c5.1-4.7,8.9-10.4,10.4-17.2
	c3.7-16,12.8-28.6,25.1-39c7.6-6.3,15.9-11.6,24.3-16.7c16.4-9.9,32.8-20,48.4-31.1c10.4-7.4,20.1-15.6,29.8-23.7
	c6-5,12.2-9.8,18.2-14.9c4.1-3.4,8-7.1,11.9-10.7c4.5-4.1,9.4-7.7,15.4-9.4c0.5-0.1,1.1-0.4,1.4-0.8c3.8-3.7,8.3-6.2,12.6-9.2
	c7.1-5,14.3-10,21.5-14.8c5.6-3.7,11.4-7,17.1-10.6c5.6-3.5,11.1-7,16.6-10.5c6-3.8,12.2-7,19.2-8.4c4.1-0.9,8.3-1.5,12.5-2.4
	c9.5-2.1,18.6-5.3,27.5-9.1c11.9-5.1,24.3-7.7,37.3-7.6c1.7,0,3.4,0.1,5,0.2c6.9,0.4,13.5-0.7,20-3.1c5.7-2.1,11.6-3,17.7-2.5
	c4.3,0.4,8.6,0.9,12.9,1.1c12.1,0.4,23.9-1.3,35.3-5.3c6-2.1,11.6-4.8,17.2-7.8c7.5-3.9,15.3-6.9,23.7-8c7.1-0.9,14-0.6,20.9,1.5
	c3,0.9,5.8,0.9,8.7,0c10.5-3,21.2-4.4,32.1-4.8c2.6-0.1,5.1-0.3,7.7-0.3c1.6,0,3.3,0.3,5.1,0.4c-1,2.2-2.6,3.3-4.4,4.2
	c-13,6.5-26.2,12.6-39.9,17.6c-24.7,9-49.7,17.1-75.2,23.5c-11.2,2.8-22.5,4.9-33.8,6.5c-16.1,2.3-32.3,4.5-48.4,6.8
	c-14.2,2-28.1,5.1-42.1,8.3c-8.6,2-17.3,3.8-25.9,6c-13.5,3.6-25.7,9.6-36.1,19.1c-1.7,1.6-3.6,2.9-5.5,4.3
	c-5.5,4-11.6,6.7-17.7,9.4c-20.9,9.2-40.7,20.4-59.8,32.9c-29.1,19.2-58.4,38.1-87.5,57.2c-8.2,5.4-16.4,10.9-24.4,16.5
	c-7.9,5.5-14.7,12.1-20.1,20.1c-4.3,6.4-7.1,13.3-8.9,20.8c-2.8,11.9-5.8,23.7-8.6,35.6c-0.2,0.8-0.4,1.7-0.7,2.8
	c3.6,0.2,7.1,0.4,10.6,0.4c2.7,0,5.1-1.1,6.5-3.4c1.3-2.1,2.9-3.9,4.3-6c2.8-4,5.4-8.1,8.1-12.2c0.4-0.5,0.8-1.1,1-1.6
	c1.2-3.2,3.6-5.4,6.2-7.4c8.4-6.5,17.6-11.3,28.2-13.1c5.3-0.9,10.2-3.1,15.2-5.2c8.2-3.5,16.3-7,24.9-9.2c1-0.3,2.1-0.8,2.3,1.2
	c-2.1,1.7-4.2,3.4-6.4,5.1c-8.5,6.8-17.1,13.7-25.6,20.5c-1.7,1.4-3.2,2.9-4.6,4.6c-2.9,3.5-6.4,6.3-10.2,8.6
	c-2.2,1.3-4.4,2.7-6.6,3.9c-3.9,2.1-6.2,5.5-7.1,9.7c-0.3,1.3-0.5,2.6-0.8,4.1c0.9,0.1,1.6,0.2,2.3,0.2c5.6,0,11.2,0.1,16.8,0.1
	C336.6,576.7,338.4,576,338.3,571.9L338.3,571.9z"/>
<path d="M74.9,282.5c1.3-1.2,2.5-2.1,4-2.4c12.3-2.6,23.8-7.4,35.1-12.6c2.5-1.1,4.9-2.4,7.4-3.5c13.2-5.8,24.2-14.5,34-24.9
	c9.4-9.9,18.7-19.9,27.8-30.2c8.2-9.3,18.2-15.8,29.7-20c8.5-3.1,17.1-5.7,25.7-8.4c15-4.7,30-9.3,45.1-13.9
	c8.7-2.6,17.6-4.1,26.6-4.8c7.6-0.6,15.2-1,22.5-3.3c4.8-1.5,9.5-3.2,14.3-4.8c1.7-0.6,3.5-1.1,5.3-1.4c6-1.1,11.5-3.8,17.2-5.9
	c26.2-9.9,51.5-21.8,76.6-34.1c9.1-4.5,18.3-8.8,28.1-11.5c9.3-2.6,18.8-4.5,28.3-5.9c22.8-3.3,45.6-6.9,68-12.5
	c17.6-4.3,35-9.4,52.2-15.1c9.9-3.2,19.9-6,30.1-7.7c9.3-1.6,18.7-1.9,28.2-1.5c6.7,0.3,13.4,0.2,20.1,0.1c4.5-0.1,8.9-0.5,13.4-0.7
	c10-0.5,19.1-3.3,27.4-8.9c4.5-3,9.2-5.7,14-8.3c3.6-1.9,7.5-3.2,11.2-4.9c2.3-1,4.5-2,6.7-3.2c1.3-0.7,2.6-1.7,3.4-3
	c1.4-2.3,3.5-3.4,5.8-4.7c5.1-2.9,10.2-6,15.3-9c3.8-2.3,7.1-5.1,10.2-8.2c4.6-4.6,9.2-9.1,14.1-13.5c0.5,7.5,0.3,15,0.4,22.4
	c-8.4,3.4-16.5,7.1-24.3,11.4c-6.7,3.7-12.8,8.1-18.5,13.1c-9.6,8.6-19.9,16.3-30.3,23.9c-3.7,2.7-7.4,5.3-11,8.2
	c-8,6.4-17.2,10.3-27,12.9c-8.7,2.3-17.5,3.4-26.4,4.8c-12.6,2-25.2,3.9-37.9,6c-12.8,2.1-25.5,4.3-38.3,6.3
	c-7.7,1.2-15.2,0.7-22.6-2.5c-6.2-2.7-12.2-1.7-17.9,1.6c-2.3,1.4-4.7,2.8-7.1,3.9c-11.7,5.5-23.8,5.7-36,2.1
	c-3.7-1.1-7.4-2.1-11.2-2.2c-6.4-0.2-12.3,1.4-18,4.3c-0.9,0.5-1.9,0.9-2.7,1.5c-5.7,3.9-12.1,5.6-18.9,6.3
	c-7.9,0.8-15.9,1.8-23.5,4.4c-3.8,1.3-7.5,2.8-11,4.7c-9.6,5.5-19.1,11.3-28.6,17.1c-4.1,2.5-7.9,5.4-11.9,8.1
	c-6.1,4.1-12.4,7.5-19.7,8.9c-0.8,0.1-1.5,0.5-2.1,1c-8.3,6-17.5,10.1-27.2,13.4c-13.5,4.6-27.1,9.2-41.2,11.6
	c-9.6,1.7-19.2,3.3-28.8,5c-10.2,1.8-20.3,3.8-29.9,7.7c-3.4,1.4-6.8,2.9-9.9,4.8c-4.5,2.7-9.3,4-14.4,4.8c-4,0.6-7.9,1.1-11.8,1.9
	c-5.9,1.2-11.1,3.9-15.8,7.6c-10.9,8.6-21.8,17.3-32.9,25.6c-10.2,7.6-20.7,14.8-31,22.2c-4.4,3.1-9.3,4.9-14.3,6.6
	c-5.9,1.9-11.6,3.9-17.2,6.5c-5.5,2.6-11.5,3.4-17.5,3.8c-2.1,0.1-4.2,0.2-6.2,0.3C78.2,283.9,76.7,283.2,74.9,282.5z"/>
<path d="M611.4,162.2c7.1,4.6,13.9,8.4,22.4,7.1c5.2-0.8,10.5-0.9,15.7,0.2c3.6,0.8,6.9,2,10,3.9c4.1,2.5,8.4,3.8,13.2,3
	c2.8-0.4,5.6,0.2,8.2,1.1c2,0.7,4.1,1.5,6.1,2.2c4.6,1.7,9.3,2.3,14.1,1.7c3.7-0.5,7.3-0.2,10.9,0.9c3.7,1.1,7.5,2.3,11.2,3.5
	c5.9,1.9,11.8,3.9,17.8,5.8c6.2,2,11.8,5.2,16.6,9.8c7.7,7.4,16.7,12.8,27.2,15.5c0.8,0.2,1.8,0.3,1.9,1.8c-1.1,0.2-2.3,0.6-3.4,0.6
	c-9.7-0.4-19.3-0.7-29-1.3c-7.3-0.5-14.6-1.3-21.9-2.1c-4.6-0.5-9.2-1-13.8-1.7c-3.6-0.5-7-1.6-10-3.7c-3.4-2.3-7.2-3-11.2-2.9
	c-2.3,0.1-4.6,0.2-6.9,0.3c-2.7,0.2-5.1-0.6-7-2.4c-1.8-1.6-3.4-3.4-5.2-5c-1.8-1.6-3.6-3.1-5.5-4.6c-1.2-1-2.5-2-3.6-3.2
	c-4.9-5.6-11-8.7-18.5-8.7c-4.4,0-8.8,0.4-13.1,0.7c-5.1,0.4-9.5-0.8-13-4.8c-0.7-0.8-1.8-1.4-2.8-1.6c-11.9-1.8-23.3-5.5-35-7.9
	c-6.8-1.4-13.6-2-20.5-1.7c-4.3,0.1-8.6-0.3-12.9-0.8c-5.1-0.5-10.1-0.1-14.7,2.3c-3.9,2-8.2,2.7-12.4,3.4
	c-7.4,1.3-14.8,2.8-22.3,2.9c-3,0-6.1-0.1-9.1-0.4c-2.8-0.3-5.6-0.1-8.2,1c-8.3,3.4-16.6,6.7-24.9,10.1c-1,0.4-1.9,0.7-3,1.1
	c-0.4-0.5-0.7-1.1-1.2-1.8c1.7-1.6,3.3-3.3,5.1-4.7c2.2-1.7,4.6-3.2,6.8-4.8c4.4-3.2,8.7-6.5,13-9.8c2.2-1.7,4.5-3.4,6.8-4.8
	c4.2-2.5,8.7-3.5,13.6-2.4c2.2,0.5,4.3,0.2,6.3-0.7c4.2-1.9,8.4-3.8,12.7-5.7c12.5-5.4,25.5-9.2,39.1-10.9
	c15.6-1.9,31.2-4.1,46.8-6.1c9.2-1.1,18.4-2.2,27.6-2.8c7.2-0.5,14.5-0.5,21.8-0.6c3.9-0.1,7.7-0.5,11.6-1.4
	c5.8-1.3,11.7-1.9,17.5-0.2c3.6,1,7.2,1.4,10.9,0.5c2.2-0.5,4.3-0.3,6.4,0.2c2.7,0.6,5.5,1.2,8.1,2.1c4.1,1.3,8.3,1.5,12.5,1.9
	c4.8,0.5,9.4,1.9,13.6,4.4c4.9,2.9,10.2,4.9,15.9,5.9c4.3,0.8,7.8,2.7,10.5,6.5c3.7,5.4,9.2,6.5,15.3,5.2c2.3-0.5,4.6-1.4,6.7-2.4
	c3.1-1.4,6.2-1.9,9.8-1.4c6.1,0.9,12.1,0.1,18-1.4c1.5-0.4,2.9-0.7,4.4-1.2c1.4-0.4,2.8-0.9,4.2-1.4c0.4,1.6,0.6,33.5,0.1,37.8
	c-3,0.5-6,0.9-9.1,1.4c-3.9,0.7-7.9,1.3-11.7,2.3c-10.1,2.7-19.3,0.8-27.6-5.6c-7.5-5.7-15-11.4-22.5-17.1c-1.1-0.8-2.2-1.6-3.5-2.1
	c-8.3-3-16.7-5.9-25.1-8.9c-7.9-2.8-16.1-4-24.4-4.6c-4.6-0.4-9.3-0.5-13.9-0.5c-5.8,0-11.4,1.4-16.7,3.7c-1.3,0.6-2.7,1-4.1,1.3
	c-1,0.2-2.1,0.2-3-0.2c-6.3-2.3-12.8-2.5-19.4-1.4c-9.6,1.6-19.2,3.3-28.8,4.9C612.8,161.8,612.4,161.9,611.4,162.2z"/>
<path d="M174.9,259c5-4.9,10.3-9.3,16.1-13c8.2-5.1,16.2-10.6,23.6-16.8c1.6-1.3,3.3-2.5,5-3.7c4.9-3.4,10.3-5.2,16.3-5.9
	c6.3-0.7,12.5-1.8,18.7-2.7c10.8-1.5,21.7-3,32.5-4.5c1.4-0.2,2.9-0.2,4.3-0.1c14.2,0.4,27.6-3.1,40.3-9.2
	c11.9-5.8,23.7-11.8,35.6-17.8c7.5-3.7,15.1-7.3,22.5-11.2c11.4-5.9,21.9-13.2,31.9-21.2c0.9-0.7,1.8-1.4,2.7-2c2-1.3,4.1-2,6.5-2
	c7.1,0,12.2-3.3,15.2-9.7c1.7-3.7,4.4-5.8,8.2-6.7c10.2-2.4,20.1-5.9,29.8-9.7c7.8-3,15.8-4.6,24.1-4.7c8.1-0.1,16.3,0.2,24.4,0.1
	c12.1-0.1,24.3-0.1,36.4-0.7c19.7-0.9,39.1-3.5,58.2-8.5c3.5-0.9,7-1.7,10.5-2.3c4-0.7,7.9,0.3,11.9,0.9c9.5,1.6,18.8,0.6,27.8-2.7
	c5.4-2,10.9-3.1,16.6-3c4.3,0.1,8.6,0.9,12.7,2.1c5.4,1.6,10.9,2.6,16.6,2c4.2-0.4,8.3-1.4,12.5-2c5.1-0.8,10.2-1.2,15.3-0.3
	c5.6,0.9,10.5,3.4,14.6,7.3c1,0.9,1.9,2,2.8,2.9c3.1,3.1,6.7,3,9.6-0.2c0.1-0.1,0.2-0.2,0.3-0.4c1.4-1.9,3.3-2.8,5.5-2.9
	c4.3-0.2,8.4-1.5,12-3.7c8.3-5.2,16.4-10.5,24.6-15.8c0.7-0.5,1.3-1.1,2.2-1.8c0,10.1,0,19.9,0,30c-3.5,0.9-7,1.8-10.5,2.9
	c-6.4,1.9-13.1,2.2-19.7,2.8c-6.7,0.7-13.4,1.2-20.1,1.7c-9.6,0.7-19.3,1.2-28.9,1.9c-5.1,0.4-10.2,0.4-15.3-0.7
	c-3.4-0.7-6.7-1.8-9.5-3.9c-5.2-3.8-11.1-5-17.5-4.6c-3.7,0.2-7.5,0.6-11.2,0.9c-8.4,0.6-16.7,1.1-25.1,1.6
	c-10.5,0.6-21.1,1.1-31.6,1.7c-10.4,0.6-20.8,1-31.1,1.7c-14.4,1-28.8,2.1-43.2,3.6c-16.1,1.6-32.1,3.5-48.1,5.4
	c-11.8,1.4-23.6,3-35.4,4.7c-1.6,0.2-3.1,0.7-4.5,1.4c-3.5,1.7-7,3.5-10.3,5.6c-13.5,8.2-27,16.5-40.5,24.7c-1,0.6-2.1,1.2-3.1,1.8
	c-11.9,6-22.6,13.8-32.5,22.7c-4,3.6-8.3,7.1-12.5,10.4c-1.5,1.2-3.3,2.3-5.1,3c-4.3,1.8-8.7,3.5-13.4,4.3c-1.8,0.3-3.5,1-5.3,1.6
	c-4.9,1.7-9.7,3.6-14.7,5.3c-2.6,0.9-5.4,1.6-8.1,1.9c-4.5,0.5-8.7,1.8-13.1,2.9c-6.3,1.6-12.7,3.2-19.2,3.8
	c-3.6,0.3-7.2,0.6-10.8,0.4c-5.9-0.2-11.6,0.4-17.4,1c-5.2,0.6-10.3,1-15.5-0.4c-1-0.3-2.1-0.3-3.1-0.4c-5.6-0.4-10.6,1.4-15.1,4.6
	c-2.7,1.9-5.3,4.1-8,6.1c-5,3.7-10.2,7.1-16.2,9.2c-1.5,0.5-3.1,0.9-4.6,1.3c-3.5,1.1-7.1,2-10.5,3.3c-5.2,1.9-10.2,4.1-15.3,6.2
	C176.1,260.1,175.3,260.5,174.9,259z"/>
<path d="M470.6,411.7c1.2-1.5,2.3-2.3,4-2.5c4.3-0.7,8.1-2.7,11.9-4.9c4-2.4,8.1-4.8,12.1-7.3c1.1-0.7,2.3-1.6,3-2.7
	c4-6.4,9.6-11.1,15.8-15.2c8.9-5.9,18.6-10,29-12.2c3.7-0.8,7.5-1.3,11.3-2c2.4-0.4,4.7-1,6.6-2.5c5.2-4,11.3-5.9,17.7-6.6
	c3.3-0.3,6.5-0.5,9.8-0.5c7.9-0.2,15.8-0.7,23.4-3.3c1.7-0.6,3.3-1.2,4.9-1.9c5.7-2.4,11.4-3.1,17.5-1.3c6.6,2,13.3,1.6,19.9,0
	c6.4-1.6,12.8-3.5,19.2-5.2c5.7-1.5,11.4-2.2,17.3-0.8c3.5,0.8,7,0.1,10.3-1.4c5.6-2.6,11.3-5.4,16.8-8.1
	c10.1-5.1,20.2-10.3,30.7-14.5c6.2-2.5,12.7-3.9,19.4-3.2c1.5,0.2,3,0.4,4.5,0.7c7,1.3,12.7-1.4,16.1-7.6c1.1-2,2.2-4.1,3.5-6
	c4.9-7.1,11.7-10.3,20.2-10.6c3.6-0.1,4.9-0.7,7.5-3c0.1,0.6,0.2,1,0.2,1.4c0,6.2,0,12.3,0,18.5c0,1.2-0.3,2.1-1.3,2.8
	c-6.9,5.2-13.6,10.6-20.5,15.8c-7.2,5.5-15.3,8.4-24.3,9.1c-12.8,1-24.4,5.4-35,12.6c-8.3,5.6-16.4,11.4-24.6,17.2
	c-1.6,1.1-3.3,2.3-5,3.3c-2.7,1.7-5.6,2.5-8.9,1.9c-11.7-1.9-23.4-1.7-35.1-1.2c-6.1,0.3-12.1,0.4-18.2,0.6
	c-3.2,0.1-6.4,0.6-9.4,1.7c-5,1.9-10.2,2.8-15.5,2.6c-5.3-0.1-10.5-0.4-15.8-0.8c-5-0.3-10-0.2-15,0.7c-7.9,1.5-15.9,2.5-23.9,3.9
	c-7.2,1.3-14,3.6-20.7,6.6c-3.7,1.7-7.7,2.6-11.5,3.9c-5.3,1.9-10.7,3.8-16,5.7c-1.3,0.5-2.5,1.1-3.6,1.9
	c-9.8,6.1-20.4,10.2-31.5,13.3c-1.8,0.5-3.8,0.9-5.5,1.6C478,413.8,474.4,412.9,470.6,411.7z"/>
<path d="M614.5,399.1c-2.2,3.6-5.3,5.3-9.2,6c-5,0.9-9.9,1.7-14.8,2.9c-8.2,2-15.9,5.3-22.8,10.2c-7.3,5.2-15.4,8.7-23.6,12.2
	c-1.1,0.5-2.3,0.8-3.5,0.9c-4.4,0.3-8.4,2-12.4,3.6c-10.6,4.2-21.1,8.7-31.8,12.6c-7.6,2.7-15.3,5.1-23.2,6.9
	c-17.4,3.9-32.7,11.8-46.1,23.4c-8.7,7.5-18.6,12.9-29.1,17.2c-18.9,7.7-38.5,13.3-58.5,17.3c-7.4,1.5-14.9,2.1-22.3,3.1
	c-0.9,0.1-1.9,0.2-2.9,0.4c-3.7,0.5-4.5,0.3-8.1-1.7c1.3-1.8,3-3.1,4.9-3.9c3.9-1.6,7.9-3.1,11.8-4.7c5.2-2.1,10-4.9,14.1-8.9
	c4.1-3.9,9.2-5.6,14.7-6.6c2.3-0.4,4.6-0.8,6.8-1.4c5.8-1.5,10.7-4.5,14.9-8.7c2-2,4.2-4,6.5-5.7c3.5-2.6,7.6-4,12-4.4
	c2.9-0.3,5.7-1,8.1-2.6c5.1-3.4,10.3-6.8,15.3-10.3c3.7-2.6,7.3-5.5,10.9-8.2c2.4-1.8,4.1-4,5.1-6.8c0.7-1.9,1.6-3.7,2.6-5.4
	c2.9-5.1,7.3-7.7,13.1-7.9c4.6-0.2,9.3-0.4,13.9-0.4c7.7-0.1,15.1-1.4,22.1-4.6c5.6-2.5,11.6-3.4,17.6-4.6c10.7-2.1,21.3-4.1,32-6.2
	c4.6-0.9,9.2-2.3,13.2-4.8c2.4-1.5,5-3,6.9-5.1c3.8-3.9,8.2-6.2,13.5-7.1c4.7-0.8,9.4-1.9,14.3-1.3c2.2,0.3,4.4,0.7,6.6,1.2
	c3,0.8,5.9,1.2,9,1.2c2.6,0,5.1,0.1,7.7,0C607.5,396.8,611,397.6,614.5,399.1z"/>
<path d="M823,489.5c0,0.6,0.1,1.2,0.1,1.8c0,7.8,0,15.7,0,23.5c0,1.1-0.2,1.9-0.9,2.8c-10.7,13.7-24.2,24-38.7,33.3
	c-10.5,6.8-21.1,13.4-31.6,20.1c-2.5,1.6-5,3.4-7.8,5.3c0.7,0.2,1,0.4,1.3,0.4c6.2-0.1,12.5-0.2,18.7-0.2c1.4,0,2.5-0.5,3.2-1.7
	c1.3-1.9,2.6-3.8,3.8-5.8c1.4-2.4,3.3-4.1,6-4.7c3-0.7,6.1-1.2,9.1-1.8c2.4-0.4,4.9-0.6,7.3-1c2.9-0.5,4.9-2.2,6.1-4.9
	c0.6-1.4,1.1-2.8,1.6-4.2c0.6-1.6,1.6-3,3.1-3.8c6-3.1,12.1-6.1,18.4-9.2c0.1,0.8,0.2,1.3,0.2,1.8c0,5,0,9.9,0,14.9
	c0,1.3-0.5,2.2-1.5,3c-6.6,5.1-13.1,10.2-19.7,15.3c-0.7,0.5-1.3,1.1-2.3,1.9c0.9,0.1,1.4,0.3,1.9,0.3c6,0,12,0,18-0.2
	c1.1,0,2.2-0.6,3.4-0.9c0,0.5,0,1.1,0,1.8c-52.4,0-104.8,0-157.1,0c5.7-1.2,9.6-4.8,13-9.2c5.2-6.6,12.2-10.2,20.5-11.1
	c1.3-0.1,2.7-0.2,4.1-0.3c4-0.3,7.4-1.8,10-5c1.3-1.5,2.3-3.2,3.4-4.9c4.5-6.7,10.5-11.3,18.3-13.5c6.2-1.7,12.1-4.1,17.8-7
	c6.1-3.1,12.7-4.7,19.5-5.7c4.6-0.7,9.1-1.5,13.5-3.3c4.4-1.8,8.2-4.4,11.2-8c2.6-3.1,5.6-5.7,8.9-7.9c2.7-1.8,5.4-3.5,8.1-5.2
	C817.3,494.3,820.4,492.3,823,489.5z M681.1,576.7c1.2,0.1,2.3,0.2,3.3,0.2c12.7,0,25.4,0,38.1,0c2.6,0,5.3,0,7.9-0.3
	c4.3-0.5,7.8-2.7,11-5.4c11.6-9.8,23.3-19.5,34.8-29.3c2.9-2.4,5.4-5.2,8.1-7.8c0.5-0.5,1.3-1,0.7-1.8c-0.4-0.4-1.3-0.6-1.9-0.5
	c-1.8,0.3-3.6,0.7-5.4,1.2c-8.2,2.1-16.3,4.6-24.6,6.3c-11.5,2.4-21.8,6.9-30.6,14.9c-4,3.6-8.7,6.2-14.1,7.2
	c-4,0.7-7.7,2.1-11.1,4.3c-5.4,3.3-10.6,6.9-15.8,10.3C681.4,576,681.3,576.2,681.1,576.7z"/>
<path d="M432.6,363.3c-0.4,0.5-0.6,1-1,1.4c-8.3,8.9-16.6,17.7-24.9,26.6c-4.1,4.4-8.8,8.1-14.1,11.1c-9.4,5.2-17.4,12.2-25,19.6
	c-3.6,3.4-7.2,6.8-10.8,10.2c-3.7,3.4-7.7,6.5-12.1,8.9c-2.3,1.3-4.2,2.9-5.9,4.9c-6.7,7.7-14.8,13.5-23.8,18.3
	c-2.4,1.3-4.8,2.5-7.3,3.7c-7.8,3.6-14.5,8.7-21.1,14c-11.4,9.1-22.8,18.3-34.2,27.5c-0.5,0.4-1,0.7-1.8,1.3c0.3-4.9-0.1-9.6,2-13.9
	c1.3-2.8,2.4-5.7,3.7-8.6c4.6-9.9,11.6-17.9,19.5-25.3c6.2-5.8,13.3-10.2,20.4-14.7c28.7-18.2,57.3-36.5,86-54.6
	c15.9-10.1,32-19.9,48-29.8C430.8,363.3,431.4,362.4,432.6,363.3z"/>
<path d="M713,441.3c-0.9-0.6-0.9-1.4-0.3-2.1c0.3-0.5,0.7-0.9,1.1-1.2c10.1-8.8,20.1-17.6,30.2-26.2c3-2.6,6.2-5,9.6-7.2
	c7.3-4.7,14-10.1,20.5-15.8c10.2-9,21.4-16.4,33.3-22.9c5.2-2.8,10.2-5.8,15.3-8.7c0.4,1.5,0.5,15,0.1,17.9
	c-1.7,0.2-3.4,0.2-5.1,0.5c-4.6,0.7-8.8,2.7-12.9,5c-9.2,5.2-17.6,11.5-26.1,17.9c-6.7,5.1-13,10.6-19.2,16.3
	c-6.8,6.2-14.4,11.2-22.6,15.2c-7.6,3.8-15.3,7.3-22.9,11C713.8,441.1,713.4,441.2,713,441.3z"/>
<path d="M823,54.7c0,6.6,0,13.1,0,19.5c-0.1,0-0.2,0-0.3,0c-0.1-0.8-0.2-1.7-0.4-2.6c-3.7-1.8-7.3-2.1-11-0.3
	c-1.4,0.7-2.7,1.4-4,2.2c-2.5,1.4-5,2.9-7.4,4.4c-6,3.6-12.4,6.1-19.5,6.9c-2.6,0.3-5.1,1.2-7.5,2.4c-5.8,3-12.1,4.5-18.4,5.8
	c-3.5,0.7-7.1,1.4-10.6,2.1c-1,0.2-1.9,0.3-2.9-0.6c0.8-0.8,1.5-1.6,2.4-2.2c1.3-1,2.7-1.7,4-2.7c2.7-2,5.3-4.1,7.9-6.2
	c2.1-1.7,4-3.7,6.1-5.4c2.8-2.3,6.1-3.9,9.7-4.5c2-0.4,3.6-1.2,5.1-2.4c2.2-1.6,4.4-3.2,6.6-4.8c5.8-4.2,12.3-6.6,19.4-7.5
	c5.9-0.7,11.6-1.9,17.4-3C820.8,55.6,821.8,55.1,823,54.7z"/>
<path d="M823,332c0,4.6,0,8.9,0,13.4c-10.1,5-20.3,10-30.4,15c-0.1,0-0.2-0.2-0.5-0.4c0.2-0.4,0.3-0.8,0.5-1.1
	c2.1-3.2,4.6-6.1,7.7-8.5c5.7-4.4,11.3-8.8,16.9-13.3C819.1,335.5,820.9,333.8,823,332z"/>
<path d="M338.3,571.9c0-2.9,0-5.9,0-8.8C338.3,566.1,338.3,569,338.3,571.9C338.3,571.9,338.3,571.9,338.3,571.9z"/>
</svg>
